<svg width="279" height="70" viewBox="0 0 279 70" fill="none" xmlns="http://www.w3.org/2000/svg">
<mask id="mask0_18_270" style="mask-type:luminance" maskUnits="userSpaceOnUse" x="0" y="0" width="61" height="70">
<path d="M0 0H60.0185V70H0V0Z" fill="white"/>
</mask>
<g mask="url(#mask0_18_270)">
<mask id="mask1_18_270" style="mask-type:luminance" maskUnits="userSpaceOnUse" x="0" y="0" width="61" height="70">
<path d="M10.6175 56.5051C10.1702 57.3897 9.25394 58.0009 8.18141 58.0009C6.67232 58.0009 5.45427 56.7946 5.45427 55.3041C5.45427 53.8136 6.67232 52.6073 8.18141 52.6073C9.24855 52.6073 10.1648 53.2185 10.6175 54.1031H17.8827V33.7293C17.8827 33.0699 18.427 32.5337 19.0953 32.5337C19.7636 32.5337 20.308 33.0699 20.308 33.7293V55.2987C20.308 55.9636 19.7636 56.4997 19.0953 56.4997H10.6175V56.5051ZM24.5496 32.5391C23.8813 32.5391 23.337 33.0752 23.337 33.7347V59.4968H16.0718C15.6244 58.6122 14.7082 58.0009 13.6357 58.0009C12.132 58.0009 10.9085 59.2073 10.9085 60.6978C10.9085 62.1883 12.132 63.3946 13.6357 63.3946C14.7082 63.3946 15.6244 62.7834 16.0718 61.8988H24.5496C25.2233 61.8988 25.7623 61.3626 25.7623 60.6978V33.7347C25.7623 33.0752 25.2179 32.5391 24.5496 32.5391ZM40.9178 20.2558C40.9178 18.7653 39.6998 17.5536 38.1907 17.5536C36.6816 17.5536 35.4635 18.7653 35.4635 20.2558C35.4635 21.741 36.6816 22.9527 38.1907 22.9527C39.6998 22.9527 40.9178 21.741 40.9178 20.2558ZM24.5496 20.2558C24.5496 18.7653 23.3316 17.5536 21.8225 17.5536C20.3134 17.5536 19.0953 18.7653 19.0953 20.2558C19.0953 21.741 20.3134 22.9527 21.8225 22.9527C23.3316 22.9527 24.5496 21.741 24.5496 20.2558ZM31.2219 64.8851V33.7347C31.2219 33.0699 30.6776 32.5391 30.0093 32.5391C29.3356 32.5391 28.7966 33.0752 28.7966 33.7347V64.8851C27.9019 65.3248 27.2821 66.2309 27.2821 67.2871C27.2821 68.7776 28.5056 69.9839 30.0093 69.9839C31.5184 69.9839 32.7418 68.7776 32.7418 67.2871C32.7364 66.2309 32.1166 65.3248 31.2219 64.8851ZM46.3721 58.0009C45.3049 58.0009 44.3887 58.6122 43.9414 59.4968H36.6708V33.7347C36.6708 33.0699 36.1319 32.5391 35.4635 32.5391C34.7898 32.5391 34.2509 33.0752 34.2509 33.7347V60.6978C34.2509 61.3626 34.7952 61.8934 35.4635 61.8934H43.9414C44.3887 62.7781 45.3049 63.3893 46.3721 63.3893C47.8812 63.3893 49.1046 62.1829 49.1046 60.6924C49.1046 59.2073 47.8812 58.0009 46.3721 58.0009ZM51.8317 52.6073C50.7646 52.6073 49.8484 53.2185 49.401 54.1031H42.1305V33.7347C42.1305 33.0699 41.5861 32.5391 40.9178 32.5391C40.2495 32.5391 39.7052 33.0752 39.7052 33.7347V55.3041C39.7052 55.9636 40.2495 56.4997 40.9178 56.4997H49.401C49.843 57.3844 50.7592 57.9956 51.8317 57.9956C53.3408 57.9956 54.5589 56.7892 54.5589 55.2987C54.5589 53.8136 53.3354 52.6073 51.8317 52.6073ZM57.286 47.2189C56.2189 47.2189 55.3026 47.8301 54.8553 48.7148H47.5847V33.7347C47.5847 33.5471 47.5416 33.3648 47.4608 33.1986L47.3907 33.0645C44.1731 26.7058 44.1839 24.4646 47.4554 18.1005C47.5416 17.9289 47.5901 17.7467 47.5901 17.5536C47.5901 7.96725 39.7914 0.0965364 30.2141 0.0161133H29.7991C20.2218 0.0965364 12.4284 7.96725 12.4284 17.5536C12.4284 17.7467 12.4715 17.9343 12.5578 18.1005C15.8292 24.4646 15.84 26.7058 12.6224 33.0645L12.5578 33.1986C12.4715 33.3648 12.4284 33.5471 12.4284 33.7347V48.7148H5.15784C4.7159 47.8301 3.79966 47.2189 2.72714 47.2189C1.21805 47.2189 0 48.4253 0 49.9158C0 51.4009 1.21805 52.6126 2.72714 52.6126C3.79427 52.6126 4.71051 51.996 5.15784 51.1114H13.6411C14.3094 51.1114 14.8537 50.5752 14.8537 49.9158V34.0189C18.3085 27.1561 18.3192 24.0947 14.8537 17.2802C15.0046 9.1307 21.6608 2.48777 29.8206 2.41807H30.1871C38.3524 2.48777 45.0085 9.1307 45.1594 17.2802C41.6939 24.1001 41.7047 27.1561 45.1594 34.0189V49.9158C45.1594 50.5806 45.7038 51.1114 46.3721 51.1114H54.8499C55.2973 51.996 56.2135 52.6126 57.286 52.6126C58.7897 52.6126 60.0131 51.4009 60.0131 49.9158C60.0185 48.4199 58.7951 47.2189 57.286 47.2189Z" fill="white"/>
</mask>
<g mask="url(#mask1_18_270)">
<path d="M0 0.0161133V69.9839H60.0185V0.0161133H0Z" fill="white"/>
</g>
</g>
<path d="M86.6656 49.5834C82.5534 49.5834 78.9693 48.7685 75.908 47.1386C72.8467 45.5087 70.4645 43.2246 68.7722 40.2758C67.0744 37.3323 66.2283 33.8849 66.2283 29.9388C66.2283 25.982 67.0744 22.5345 68.7722 19.6018C70.4645 16.6583 72.8467 14.3689 75.908 12.739C78.9693 11.1091 82.5534 10.2942 86.6656 10.2942C90.8048 10.2942 94.4051 11.1091 97.4664 12.739C100.528 14.3689 102.904 16.6583 104.602 19.6018C106.295 22.5345 107.146 25.982 107.146 29.9388C107.146 33.8849 106.295 37.3323 104.602 40.2758C102.904 43.2246 100.528 45.5087 97.4664 47.1386C94.4051 48.7685 90.8048 49.5834 86.6656 49.5834ZM86.6656 42.0129C89.0047 42.0129 91.0474 41.5143 92.7882 40.5117C94.5398 39.5145 95.8926 38.1044 96.8412 36.2868C97.7897 34.4586 98.264 32.3408 98.264 29.9388C98.264 27.4939 97.7897 25.3654 96.8412 23.5479C95.8926 21.7196 94.5398 20.3095 92.7882 19.323C91.0474 18.3257 89.0047 17.8218 86.6656 17.8218C84.3481 17.8218 82.3162 18.3257 80.5646 19.323C78.8238 20.3095 77.471 21.7196 76.5116 23.5479C75.5631 25.3654 75.0888 27.4939 75.0888 29.9388C75.0888 32.3408 75.5631 34.4586 76.5116 36.2868C77.471 38.1044 78.8238 39.5145 80.5646 40.5117C82.3162 41.5143 84.3481 42.0129 86.6656 42.0129Z" fill="white"/>
<path d="M123.039 49.3261C120.204 49.3261 117.703 48.7256 115.536 47.5247C113.38 46.3237 111.704 44.6616 110.513 42.5277C109.317 40.3992 108.724 37.9168 108.724 35.0859C108.724 32.2711 109.295 29.7995 110.449 27.6656C111.613 25.5371 113.235 23.8696 115.321 22.6687C117.417 21.4677 119.832 20.8672 122.564 20.8672C124.817 20.8672 126.854 21.2854 128.665 22.1111C130.476 22.926 131.985 24.0787 133.193 25.5639C134.411 27.0383 135.208 28.754 135.586 30.7109L128.385 32.5553C128.11 30.8396 127.442 29.5314 126.38 28.6307C125.329 27.7192 124.127 27.2581 122.78 27.2581C120.98 27.2581 119.503 27.9819 118.339 29.4242C117.186 30.8718 116.614 32.759 116.614 35.0859C116.641 37.4343 117.288 39.3269 118.554 40.7691C119.816 42.2168 121.4 42.9352 123.297 42.9352C124.963 42.9352 126.391 42.3722 127.587 41.241C128.779 40.099 129.474 38.6353 129.679 36.8445L137.03 37.8739C136.798 40.1472 136.049 42.1417 134.788 43.8574C133.521 45.5731 131.878 46.9188 129.851 47.8892C127.835 48.8436 125.566 49.3261 123.039 49.3261Z" fill="white"/>
<path d="M152.313 49.3258C149.133 49.3258 146.621 48.4519 144.767 46.7094C142.924 44.9508 142.008 42.581 142.008 39.5893V27.8798H137.028V21.8963H142.008V14.6261L149.941 12.9104V21.8963H160.462V27.8798H149.941V38.3454C149.941 39.7931 150.335 40.9297 151.127 41.7554C151.914 42.5703 152.9 42.9778 154.081 42.9778C156.436 42.9778 158.231 41.8519 159.47 39.5893L161.863 44.5219C160.925 46.0124 159.583 47.1812 157.832 48.0391C156.091 48.8969 154.253 49.3258 152.313 49.3258Z" fill="white"/>
<path d="M177.246 49.3261C174.314 49.3261 171.737 48.7471 169.528 47.589C167.313 46.4202 165.588 44.7581 164.354 42.6135C163.13 40.4582 162.521 37.949 162.521 35.0859C162.521 32.2014 163.13 29.6922 164.354 27.5584C165.588 25.4298 167.313 23.7839 169.528 22.6258C171.737 21.457 174.314 20.8672 177.246 20.8672C180.221 20.8672 182.813 21.457 185.028 22.6258C187.238 23.7839 188.957 25.4298 190.181 27.5584C191.415 29.6922 192.035 32.2014 192.035 35.0859C192.035 37.949 191.415 40.4582 190.181 42.6135C188.957 44.7581 187.238 46.4202 185.028 47.589C182.813 48.7471 180.221 49.3261 177.246 49.3261ZM177.246 42.7851C179.385 42.7851 181.083 42.0988 182.333 40.7263C183.584 39.343 184.209 37.4611 184.209 35.0859C184.209 32.7161 183.584 30.8396 182.333 29.4671C181.083 28.0945 179.385 27.4082 177.246 27.4082C175.144 27.4082 173.462 28.0945 172.201 29.4671C170.934 30.8396 170.304 32.7161 170.304 35.0859C170.304 37.4611 170.934 39.343 172.201 40.7263C173.462 42.0988 175.144 42.7851 177.246 42.7851Z" fill="white"/>
<path d="M194.087 59.127V21.8966H200.727L201.913 26.9364H201.978C203.875 23.0654 206.963 21.1245 211.248 21.1245C213.56 21.1245 215.608 21.7143 217.392 22.8831C219.17 24.0412 220.566 25.6657 221.574 27.7513C222.577 29.8263 223.083 32.2711 223.083 35.0859C223.083 37.8739 222.577 40.3188 221.574 42.4205C220.566 44.5222 219.17 46.1628 217.392 47.3316C215.608 48.4897 213.56 49.0688 211.248 49.0688C207.033 49.0688 203.982 47.1279 202.085 43.2354H202.021V59.127H194.087ZM208.402 42.3561C210.369 42.3561 211.986 41.6645 213.253 40.2759C214.514 38.8926 215.15 37.1608 215.15 35.0859C215.15 32.9574 214.514 31.2042 213.253 29.8316C211.986 28.4591 210.369 27.7728 208.402 27.7728C206.462 27.7728 204.856 28.4752 203.594 29.8745C202.344 31.2631 201.719 33.0003 201.719 35.0859C201.719 37.1608 202.344 38.8926 203.594 40.2759C204.856 41.6645 206.462 42.3561 208.402 42.3561Z" fill="white"/>
<path d="M233.786 49.0687C231.054 49.0687 228.914 48.2859 227.362 46.7096C225.81 45.1226 225.033 42.9244 225.033 40.1042V21.8965H232.967V37.6808C232.967 39.1552 233.36 40.3347 234.153 41.2194C234.956 42.0933 236.05 42.5276 237.43 42.5276C239.154 42.5276 240.545 41.97 241.612 40.8548C242.69 39.7289 243.229 38.2706 243.229 36.4798V21.8965H251.162V48.2966H244.479L243.293 43.4927H243.229C242.264 45.2834 240.976 46.6613 239.37 47.6318C237.758 48.5861 235.899 49.0687 233.786 49.0687Z" fill="white"/>
<path d="M266.087 49.2188C263.699 49.2188 261.543 48.865 259.619 48.168C257.706 47.471 256.17 46.4415 255.006 45.0797C253.852 43.7233 253.206 42.0665 253.065 40.1042L259.964 39.3322C260.104 40.7369 260.789 41.8574 262.012 42.6992C263.246 43.5463 264.761 43.9645 266.561 43.9645C268.038 43.9645 269.299 43.675 270.334 43.0852C271.368 42.5008 271.886 41.7663 271.886 40.8763C271.886 40.0774 271.46 39.434 270.614 38.9461C269.762 38.4475 268.415 38.04 266.561 37.7237L262.616 37.1018C259.668 36.6192 257.539 35.7936 256.235 34.6355C254.925 33.4667 254.273 31.7939 254.273 29.6171C254.273 26.9471 255.318 24.8346 257.42 23.2905C259.533 21.7357 262.282 20.9529 265.677 20.9529C267.774 20.9529 269.665 21.2853 271.347 21.9394C273.028 22.5989 274.392 23.5157 275.443 24.6845C276.489 25.8426 277.125 27.2044 277.34 28.7593L270.592 29.7243C270.49 28.5984 269.951 27.6977 268.976 27.0221C268.011 26.3519 266.825 26.0142 265.418 26.0142C264.168 26.0142 263.122 26.3037 262.292 26.872C261.473 27.4296 261.042 28.1105 260.999 28.9094C260.999 29.5528 261.349 30.105 262.055 30.5607C262.772 31.0057 263.92 31.365 265.505 31.633L269.45 32.2979C272.813 32.8876 275.238 33.8098 276.737 35.0644C278.246 36.3244 279 38.0561 279 40.2544C279 42.0719 278.45 43.6536 277.362 44.9939C276.268 46.3397 274.753 47.3852 272.813 48.1251C270.883 48.8542 268.641 49.2188 266.087 49.2188Z" fill="white"/>
</svg>
