<svg width="272" height="68" viewBox="0 0 272 68" fill="none" xmlns="http://www.w3.org/2000/svg">
<mask id="mask0_53_345" style="mask-type:luminance" maskUnits="userSpaceOnUse" x="0" y="0" width="58" height="68">
<path d="M0 0H57.9992V68H0V0Z" fill="white"/>
</mask>
<g mask="url(#mask0_53_345)">
<mask id="mask1_53_345" style="mask-type:luminance" maskUnits="userSpaceOnUse" x="0" y="0" width="58" height="68">
<path d="M10.2603 54.8906C9.828 55.75 8.94259 56.3438 7.90615 56.3438C6.44783 56.3438 5.27076 55.1719 5.27076 53.724C5.27076 52.276 6.44783 51.1042 7.90615 51.1042C8.93738 51.1042 9.82279 51.6979 10.2603 52.5573H17.281V32.7656C17.281 32.125 17.8071 31.6042 18.4529 31.6042C19.0987 31.6042 19.6247 32.125 19.6247 32.7656V53.7188C19.6247 54.3646 19.0987 54.8854 18.4529 54.8854H10.2603V54.8906ZM23.7236 31.6094C23.0778 31.6094 22.5518 32.1302 22.5518 32.7708V57.7969H15.531C15.0988 56.9375 14.2134 56.3438 13.1769 56.3438C11.7238 56.3438 10.5415 57.5156 10.5415 58.9635C10.5415 60.4115 11.7238 61.5833 13.1769 61.5833C14.2134 61.5833 15.0988 60.9896 15.531 60.1302H23.7236C24.3747 60.1302 24.8955 59.6094 24.8955 58.9635V32.7708C24.8955 32.1302 24.3695 31.6094 23.7236 31.6094ZM39.5411 19.6771C39.5411 18.2292 38.3641 17.0521 36.9058 17.0521C35.4475 17.0521 34.2704 18.2292 34.2704 19.6771C34.2704 21.1198 35.4475 22.2969 36.9058 22.2969C38.3641 22.2969 39.5411 21.1198 39.5411 19.6771ZM23.7236 19.6771C23.7236 18.2292 22.5466 17.0521 21.0883 17.0521C19.63 17.0521 18.4529 18.2292 18.4529 19.6771C18.4529 21.1198 19.63 22.2969 21.0883 22.2969C22.5466 22.2969 23.7236 21.1198 23.7236 19.6771ZM30.1715 63.0313V32.7708C30.1715 32.125 29.6454 31.6094 28.9996 31.6094C28.3486 31.6094 27.8278 32.1302 27.8278 32.7708V63.0313C26.9632 63.4583 26.3642 64.3385 26.3642 65.3646C26.3642 66.8125 27.5465 67.9844 28.9996 67.9844C30.4579 67.9844 31.6402 66.8125 31.6402 65.3646C31.635 64.3385 31.0361 63.4583 30.1715 63.0313ZM44.8119 56.3438C43.7807 56.3438 42.8953 56.9375 42.463 57.7969H35.437V32.7708C35.437 32.125 34.9162 31.6094 34.2704 31.6094C33.6194 31.6094 33.0985 32.1302 33.0985 32.7708V58.9635C33.0985 59.6094 33.6246 60.125 34.2704 60.125H42.463C42.8953 60.9844 43.7807 61.5781 44.8119 61.5781C46.2702 61.5781 47.4525 60.4063 47.4525 58.9583C47.4525 57.5156 46.2702 56.3438 44.8119 56.3438ZM50.0879 51.1042C49.0566 51.1042 48.1712 51.6979 47.739 52.5573H40.713V32.7708C40.713 32.125 40.187 31.6094 39.5411 31.6094C38.8953 31.6094 38.3693 32.1302 38.3693 32.7708V53.724C38.3693 54.3646 38.8953 54.8854 39.5411 54.8854H47.739C48.166 55.7448 49.0514 56.3385 50.0879 56.3385C51.5462 56.3385 52.7233 55.1667 52.7233 53.7188C52.7233 52.276 51.541 51.1042 50.0879 51.1042ZM55.3586 45.8698C54.3274 45.8698 53.442 46.4635 53.0097 47.3229H45.9838V32.7708C45.9838 32.5885 45.9421 32.4115 45.864 32.25L45.7963 32.1198C42.6869 25.9427 42.6974 23.7656 45.8588 17.5833C45.9421 17.4167 45.989 17.2396 45.989 17.0521C45.989 7.73958 38.4526 0.0937503 29.1975 0.015625H28.7965C19.5414 0.0937503 12.0103 7.73958 12.0103 17.0521C12.0103 17.2396 12.0519 17.4219 12.1353 17.5833C15.2967 23.7656 15.3071 25.9427 12.1978 32.1198L12.1353 32.25C12.0519 32.4115 12.0103 32.5885 12.0103 32.7708V47.3229H4.98431C4.55723 46.4635 3.67183 45.8698 2.63538 45.8698C1.17707 45.8698 0 47.0417 0 48.4896C0 49.9323 1.17707 51.1094 2.63538 51.1094C3.66662 51.1094 4.55202 50.5104 4.98431 49.651H13.1821C13.8279 49.651 14.354 49.1302 14.354 48.4896V33.0469C17.6925 26.3802 17.7029 23.4063 14.354 16.7865C14.4998 8.86979 20.932 2.41667 28.8173 2.34896H29.1715C37.062 2.41667 43.4942 8.86979 43.6401 16.7865C40.2911 23.4115 40.3016 26.3802 43.6401 33.0469V48.4896C43.6401 49.1354 44.1661 49.651 44.8119 49.651H53.0045C53.4368 50.5104 54.3222 51.1094 55.3586 51.1094C56.8118 51.1094 57.994 49.9323 57.994 48.4896C57.9992 47.0365 56.817 45.8698 55.3586 45.8698Z" fill="white"/>
</mask>
<g mask="url(#mask1_53_345)">
<path d="M0 0.015625V67.9844H57.9992V0.015625H0Z" fill="url(#paint0_linear_53_345)"/>
</g>
</g>
<path d="M84.7497 53.1667C80.7758 53.1667 77.3123 52.375 74.354 50.7917C71.3957 49.2083 69.0937 46.9896 67.4583 44.125C65.8177 41.2656 65 37.9167 65 34.0833C65 30.2396 65.8177 26.8906 67.4583 24.0417C69.0937 21.1823 71.3957 18.9583 74.354 17.375C77.3123 15.7917 80.7758 15 84.7497 15C88.7497 15 92.2288 15.7917 95.1871 17.375C98.1454 18.9583 100.442 21.1823 102.083 24.0417C103.718 26.8906 104.541 30.2396 104.541 34.0833C104.541 37.9167 103.718 41.2656 102.083 44.125C100.442 46.9896 98.1454 49.2083 95.1871 50.7917C92.2288 52.375 88.7497 53.1667 84.7497 53.1667ZM84.7497 45.8125C87.0101 45.8125 88.9841 45.3281 90.6663 44.3542C92.359 43.3854 93.6663 42.0156 94.5829 40.25C95.4996 38.474 95.9579 36.4167 95.9579 34.0833C95.9579 31.7083 95.4996 29.6406 94.5829 27.875C93.6663 26.099 92.359 24.7292 90.6663 23.7708C88.9841 22.8021 87.0101 22.3125 84.7497 22.3125C82.5102 22.3125 80.5467 22.8021 78.854 23.7708C77.1717 24.7292 75.8644 26.099 74.9374 27.875C74.0207 29.6406 73.5624 31.7083 73.5624 34.0833C73.5624 36.4167 74.0207 38.474 74.9374 40.25C75.8644 42.0156 77.1717 43.3854 78.854 44.3542C80.5467 45.3281 82.5102 45.8125 84.7497 45.8125Z" fill="#26026D"/>
<path d="M119.833 52.6458C117.094 52.6458 114.677 52.0625 112.583 50.8958C110.5 49.7292 108.88 48.1146 107.729 46.0417C106.573 43.974 106 41.5625 106 38.8125C106 36.0781 106.552 33.6771 107.667 31.6042C108.792 29.5365 110.359 27.9167 112.375 26.75C114.401 25.5833 116.734 25 119.375 25C121.552 25 123.521 25.4062 125.271 26.2083C127.021 27 128.479 28.1198 129.646 29.5625C130.823 30.9948 131.593 32.6615 131.958 34.5625L125 36.3542C124.734 34.6875 124.088 33.4167 123.062 32.5417C122.047 31.6562 120.885 31.2083 119.583 31.2083C117.844 31.2083 116.417 31.9115 115.292 33.3125C114.177 34.7188 113.625 36.5521 113.625 38.8125C113.651 41.0938 114.276 42.9323 115.5 44.3333C116.719 45.7396 118.25 46.4375 120.083 46.4375C121.693 46.4375 123.073 45.8906 124.229 44.7917C125.38 43.6823 126.052 42.2604 126.25 40.5208L133.354 41.5208C133.13 43.7292 132.406 45.6667 131.187 47.3333C129.963 49 128.375 50.3073 126.416 51.25C124.469 52.1771 122.276 52.6458 119.833 52.6458Z" fill="#26026D"/>
<path d="M147.771 53.375C144.698 53.375 142.271 52.526 140.479 50.8333C138.698 49.125 137.812 46.8229 137.812 43.9167V32.5417H133V26.7292H137.812V19.6667L145.479 18V26.7292H155.646V32.5417H145.479V42.7083C145.479 44.1146 145.859 45.2188 146.625 46.0208C147.385 46.8125 148.338 47.2083 149.479 47.2083C151.755 47.2083 153.489 46.1146 154.687 43.9167L157 48.7083C156.093 50.1563 154.797 51.2917 153.104 52.125C151.422 52.9583 149.646 53.375 147.771 53.375Z" fill="#26026D"/>
<path d="M171.229 52.6458C168.396 52.6458 165.906 52.0833 163.771 50.9583C161.63 49.8229 159.964 48.2083 158.771 46.125C157.589 44.0312 157 41.5938 157 38.8125C157 36.0104 157.589 33.5729 158.771 31.5C159.964 29.4323 161.63 27.8333 163.771 26.7083C165.906 25.5729 168.396 25 171.229 25C174.104 25 176.609 25.5729 178.75 26.7083C180.885 27.8333 182.547 29.4323 183.729 31.5C184.922 33.5729 185.52 36.0104 185.52 38.8125C185.52 41.5938 184.922 44.0312 183.729 46.125C182.547 48.2083 180.885 49.8229 178.75 50.9583C176.609 52.0833 174.104 52.6458 171.229 52.6458ZM171.229 46.2917C173.297 46.2917 174.937 45.625 176.146 44.2917C177.354 42.9479 177.958 41.1198 177.958 38.8125C177.958 36.5104 177.354 34.6875 176.146 33.3542C174.937 32.0208 173.297 31.3542 171.229 31.3542C169.198 31.3542 167.573 32.0208 166.354 33.3542C165.13 34.6875 164.521 36.5104 164.521 38.8125C164.521 41.1198 165.13 42.9479 166.354 44.2917C167.573 45.625 169.198 46.2917 171.229 46.2917Z" fill="#26026D"/>
<path d="M188 61.9167V25.75H194.417L195.562 30.6458H195.625C197.458 26.8854 200.443 25 204.583 25C206.817 25 208.797 25.5729 210.521 26.7083C212.239 27.8333 213.588 29.4115 214.562 31.4375C215.531 33.4531 216.02 35.8281 216.02 38.5625C216.02 41.2708 215.531 43.6458 214.562 45.6875C213.588 47.7292 212.239 49.3229 210.521 50.4583C208.797 51.5833 206.817 52.1458 204.583 52.1458C200.51 52.1458 197.562 50.2604 195.729 46.4792H195.667V61.9167H188ZM201.833 45.625C203.734 45.625 205.297 44.9531 206.521 43.6042C207.739 42.2604 208.354 40.5781 208.354 38.5625C208.354 36.4948 207.739 34.7917 206.521 33.4583C205.297 32.125 203.734 31.4583 201.833 31.4583C199.958 31.4583 198.406 32.1406 197.187 33.5C195.979 34.849 195.375 36.5365 195.375 38.5625C195.375 40.5781 195.979 42.2604 197.187 43.6042C198.406 44.9531 199.958 45.625 201.833 45.625Z" fill="#26026D"/>
<path d="M228.458 53.3958C225.818 53.3958 223.75 52.6354 222.25 51.1042C220.75 49.5625 220 47.4271 220 44.6875V27H227.667V42.3333C227.667 43.7656 228.047 44.9115 228.812 45.7708C229.588 46.6198 230.646 47.0417 231.979 47.0417C233.646 47.0417 234.989 46.5 236.021 45.4167C237.062 44.3229 237.583 42.9062 237.583 41.1667V27H245.25V52.6458H238.791L237.646 47.9792H237.583C236.651 49.7188 235.406 51.0573 233.854 52C232.297 52.9271 230.5 53.3958 228.458 53.3958Z" fill="#26026D"/>
<path d="M258.583 53.4583C256.276 53.4583 254.193 53.1146 252.333 52.4375C250.484 51.7604 249 50.7604 247.875 49.4375C246.76 48.1198 246.135 46.5104 246 44.6042L252.667 43.8542C252.802 45.2188 253.463 46.3073 254.646 47.125C255.838 47.9479 257.302 48.3542 259.041 48.3542C260.469 48.3542 261.687 48.0729 262.687 47.5C263.687 46.9323 264.187 46.2188 264.187 45.3542C264.187 44.5781 263.776 43.9531 262.958 43.4792C262.135 42.9948 260.833 42.599 259.041 42.2917L255.229 41.6875C252.38 41.2188 250.323 40.4167 249.062 39.2917C247.797 38.1562 247.167 36.5312 247.167 34.4167C247.167 31.8229 248.177 29.7708 250.208 28.2708C252.25 26.7604 254.906 26 258.187 26C260.213 26 262.041 26.3229 263.666 26.9583C265.291 27.599 266.609 28.4896 267.625 29.625C268.635 30.75 269.25 32.0729 269.458 33.5833L262.937 34.5208C262.838 33.4271 262.317 32.5521 261.375 31.8958C260.443 31.2448 259.297 30.9167 257.937 30.9167C256.729 30.9167 255.719 31.1979 254.917 31.75C254.125 32.2917 253.708 32.9531 253.667 33.7292C253.667 34.3542 254.005 34.8906 254.687 35.3333C255.38 35.7656 256.489 36.1146 258.021 36.375L261.833 37.0208C265.083 37.5938 267.427 38.4896 268.875 39.7083C270.333 40.9323 271.062 42.6146 271.062 44.75C271.062 46.5156 270.531 48.0521 269.479 49.3542C268.422 50.6615 266.958 51.6771 265.083 52.3958C263.219 53.1042 261.052 53.4583 258.583 53.4583Z" fill="#26026D"/>
<defs>
<linearGradient id="paint0_linear_53_345" x1="28.9972" y1="0.0143859" x2="28.9972" y2="67.9862" gradientUnits="userSpaceOnUse">
<stop stop-color="#ED1E79"/>
<stop offset="0.03125" stop-color="#ED1E79"/>
<stop offset="0.0390625" stop-color="#ED1E79"/>
<stop offset="0.0429687" stop-color="#EC1E79"/>
<stop offset="0.046875" stop-color="#EB1E79"/>
<stop offset="0.0507812" stop-color="#EA1E79"/>
<stop offset="0.0546875" stop-color="#E91E79"/>
<stop offset="0.0585937" stop-color="#E81E79"/>
<stop offset="0.0625" stop-color="#E71E79"/>
<stop offset="0.0664062" stop-color="#E61E78"/>
<stop offset="0.0703125" stop-color="#E51E78"/>
<stop offset="0.0742187" stop-color="#E51E78"/>
<stop offset="0.078125" stop-color="#E41E78"/>
<stop offset="0.0820312" stop-color="#E31E78"/>
<stop offset="0.0859375" stop-color="#E21E78"/>
<stop offset="0.0898437" stop-color="#E11E78"/>
<stop offset="0.09375" stop-color="#E01D78"/>
<stop offset="0.0976562" stop-color="#DF1D78"/>
<stop offset="0.101562" stop-color="#DE1D78"/>
<stop offset="0.105469" stop-color="#DE1D78"/>
<stop offset="0.109375" stop-color="#DD1D77"/>
<stop offset="0.113281" stop-color="#DC1D77"/>
<stop offset="0.117187" stop-color="#DB1D77"/>
<stop offset="0.121094" stop-color="#DA1D77"/>
<stop offset="0.125" stop-color="#D91D77"/>
<stop offset="0.128906" stop-color="#D81D77"/>
<stop offset="0.132812" stop-color="#D71D77"/>
<stop offset="0.136719" stop-color="#D71D77"/>
<stop offset="0.140625" stop-color="#D61D77"/>
<stop offset="0.144531" stop-color="#D51D77"/>
<stop offset="0.148438" stop-color="#D41D77"/>
<stop offset="0.152344" stop-color="#D31D77"/>
<stop offset="0.15625" stop-color="#D21D76"/>
<stop offset="0.160156" stop-color="#D11D76"/>
<stop offset="0.164062" stop-color="#D01D76"/>
<stop offset="0.167969" stop-color="#D01D76"/>
<stop offset="0.171875" stop-color="#CF1D76"/>
<stop offset="0.175781" stop-color="#CE1D76"/>
<stop offset="0.179687" stop-color="#CD1D76"/>
<stop offset="0.183594" stop-color="#CC1C76"/>
<stop offset="0.1875" stop-color="#CB1C76"/>
<stop offset="0.191406" stop-color="#CA1C76"/>
<stop offset="0.195312" stop-color="#C91C76"/>
<stop offset="0.199219" stop-color="#C91C75"/>
<stop offset="0.203125" stop-color="#C81C75"/>
<stop offset="0.207031" stop-color="#C71C75"/>
<stop offset="0.210938" stop-color="#C61C75"/>
<stop offset="0.214844" stop-color="#C51C75"/>
<stop offset="0.21875" stop-color="#C41C75"/>
<stop offset="0.222656" stop-color="#C31C75"/>
<stop offset="0.226562" stop-color="#C21C75"/>
<stop offset="0.230469" stop-color="#C21C75"/>
<stop offset="0.234375" stop-color="#C11C75"/>
<stop offset="0.238281" stop-color="#C01C75"/>
<stop offset="0.242187" stop-color="#BF1C74"/>
<stop offset="0.246094" stop-color="#BE1C74"/>
<stop offset="0.25" stop-color="#BD1C74"/>
<stop offset="0.253906" stop-color="#BC1C74"/>
<stop offset="0.257812" stop-color="#BB1C74"/>
<stop offset="0.261719" stop-color="#BB1C74"/>
<stop offset="0.265625" stop-color="#BA1C74"/>
<stop offset="0.269531" stop-color="#B91C74"/>
<stop offset="0.273438" stop-color="#B81C74"/>
<stop offset="0.277344" stop-color="#B71B74"/>
<stop offset="0.28125" stop-color="#B61B74"/>
<stop offset="0.285156" stop-color="#B51B74"/>
<stop offset="0.289062" stop-color="#B41B73"/>
<stop offset="0.292969" stop-color="#B31B73"/>
<stop offset="0.296875" stop-color="#B31B73"/>
<stop offset="0.300781" stop-color="#B21B73"/>
<stop offset="0.304687" stop-color="#B11B73"/>
<stop offset="0.308594" stop-color="#B01B73"/>
<stop offset="0.3125" stop-color="#AF1B73"/>
<stop offset="0.316406" stop-color="#AE1B73"/>
<stop offset="0.320313" stop-color="#AD1B73"/>
<stop offset="0.324219" stop-color="#AC1B73"/>
<stop offset="0.328125" stop-color="#AC1B73"/>
<stop offset="0.332031" stop-color="#AB1B72"/>
<stop offset="0.335938" stop-color="#AA1B72"/>
<stop offset="0.339844" stop-color="#A91B72"/>
<stop offset="0.34375" stop-color="#A81B72"/>
<stop offset="0.347656" stop-color="#A71B72"/>
<stop offset="0.351562" stop-color="#A61B72"/>
<stop offset="0.355469" stop-color="#A51B72"/>
<stop offset="0.359375" stop-color="#A51B72"/>
<stop offset="0.363281" stop-color="#A41B72"/>
<stop offset="0.367187" stop-color="#A31A72"/>
<stop offset="0.371094" stop-color="#A21A72"/>
<stop offset="0.375" stop-color="#A11A71"/>
<stop offset="0.378906" stop-color="#A01A71"/>
<stop offset="0.382813" stop-color="#9F1A71"/>
<stop offset="0.386719" stop-color="#9E1A71"/>
<stop offset="0.390625" stop-color="#9E1A71"/>
<stop offset="0.394531" stop-color="#9D1A71"/>
<stop offset="0.398438" stop-color="#9C1A71"/>
<stop offset="0.402344" stop-color="#9B1A71"/>
<stop offset="0.40625" stop-color="#9A1A71"/>
<stop offset="0.410156" stop-color="#991A71"/>
<stop offset="0.414062" stop-color="#981A71"/>
<stop offset="0.417969" stop-color="#971A71"/>
<stop offset="0.421875" stop-color="#971A70"/>
<stop offset="0.425781" stop-color="#961A70"/>
<stop offset="0.429688" stop-color="#951A70"/>
<stop offset="0.433594" stop-color="#941A70"/>
<stop offset="0.4375" stop-color="#931A70"/>
<stop offset="0.441406" stop-color="#921A70"/>
<stop offset="0.445313" stop-color="#911A70"/>
<stop offset="0.449219" stop-color="#901A70"/>
<stop offset="0.453125" stop-color="#901A70"/>
<stop offset="0.457031" stop-color="#8F1A70"/>
<stop offset="0.460938" stop-color="#8E1970"/>
<stop offset="0.464844" stop-color="#8D196F"/>
<stop offset="0.46875" stop-color="#8C196F"/>
<stop offset="0.472656" stop-color="#8B196F"/>
<stop offset="0.476562" stop-color="#8A196F"/>
<stop offset="0.480469" stop-color="#89196F"/>
<stop offset="0.484375" stop-color="#89196F"/>
<stop offset="0.488281" stop-color="#88196F"/>
<stop offset="0.492188" stop-color="#87196F"/>
<stop offset="0.496094" stop-color="#86196F"/>
<stop offset="0.5" stop-color="#85196F"/>
<stop offset="0.503906" stop-color="#84196F"/>
<stop offset="0.507813" stop-color="#83196E"/>
<stop offset="0.511719" stop-color="#82196E"/>
<stop offset="0.515625" stop-color="#82196E"/>
<stop offset="0.519531" stop-color="#81196E"/>
<stop offset="0.523438" stop-color="#80196E"/>
<stop offset="0.527344" stop-color="#7F196E"/>
<stop offset="0.53125" stop-color="#7E196E"/>
<stop offset="0.535156" stop-color="#7D196E"/>
<stop offset="0.539062" stop-color="#7C196E"/>
<stop offset="0.542969" stop-color="#7B196E"/>
<stop offset="0.546875" stop-color="#7B196E"/>
<stop offset="0.550781" stop-color="#7A186E"/>
<stop offset="0.554688" stop-color="#79186D"/>
<stop offset="0.558594" stop-color="#78186D"/>
<stop offset="0.5625" stop-color="#77186D"/>
<stop offset="0.566406" stop-color="#76186D"/>
<stop offset="0.570313" stop-color="#75186D"/>
<stop offset="0.574219" stop-color="#74186D"/>
<stop offset="0.578125" stop-color="#74186D"/>
<stop offset="0.582031" stop-color="#73186D"/>
<stop offset="0.585938" stop-color="#72186D"/>
<stop offset="0.589844" stop-color="#71186D"/>
<stop offset="0.59375" stop-color="#70186D"/>
<stop offset="0.597656" stop-color="#6F186C"/>
<stop offset="0.601562" stop-color="#6E186C"/>
<stop offset="0.605469" stop-color="#6D186C"/>
<stop offset="0.609375" stop-color="#6D186C"/>
<stop offset="0.613281" stop-color="#6C186C"/>
<stop offset="0.617188" stop-color="#6B186C"/>
<stop offset="0.621094" stop-color="#6A186C"/>
<stop offset="0.625" stop-color="#69186C"/>
<stop offset="0.628906" stop-color="#68186C"/>
<stop offset="0.632813" stop-color="#67186C"/>
<stop offset="0.636719" stop-color="#66186C"/>
<stop offset="0.640625" stop-color="#66186B"/>
<stop offset="0.644531" stop-color="#65176B"/>
<stop offset="0.648438" stop-color="#64176B"/>
<stop offset="0.652344" stop-color="#63176B"/>
<stop offset="0.65625" stop-color="#62176B"/>
<stop offset="0.660156" stop-color="#61176B"/>
<stop offset="0.664063" stop-color="#60176B"/>
<stop offset="0.667969" stop-color="#5F176B"/>
<stop offset="0.671875" stop-color="#5F176B"/>
<stop offset="0.675781" stop-color="#5E176B"/>
<stop offset="0.679688" stop-color="#5D176B"/>
<stop offset="0.683594" stop-color="#5C176B"/>
<stop offset="0.6875" stop-color="#5B176A"/>
<stop offset="0.691406" stop-color="#5A176A"/>
<stop offset="0.695313" stop-color="#59176A"/>
<stop offset="0.699219" stop-color="#58176A"/>
<stop offset="0.703125" stop-color="#58176A"/>
<stop offset="0.707031" stop-color="#57176A"/>
<stop offset="0.710938" stop-color="#56176A"/>
<stop offset="0.714844" stop-color="#55176A"/>
<stop offset="0.71875" stop-color="#54176A"/>
<stop offset="0.722656" stop-color="#53176A"/>
<stop offset="0.726563" stop-color="#52176A"/>
<stop offset="0.730469" stop-color="#511769"/>
<stop offset="0.734375" stop-color="#511669"/>
<stop offset="0.738281" stop-color="#501669"/>
<stop offset="0.742188" stop-color="#4F1669"/>
<stop offset="0.746094" stop-color="#4E1669"/>
<stop offset="0.75" stop-color="#4D1669"/>
<stop offset="0.753906" stop-color="#4C1669"/>
<stop offset="0.757812" stop-color="#4B1669"/>
<stop offset="0.761719" stop-color="#4A1669"/>
<stop offset="0.765625" stop-color="#4A1669"/>
<stop offset="0.769531" stop-color="#491669"/>
<stop offset="0.773438" stop-color="#481668"/>
<stop offset="0.777344" stop-color="#471668"/>
<stop offset="0.78125" stop-color="#461668"/>
<stop offset="0.785156" stop-color="#451668"/>
<stop offset="0.789063" stop-color="#441668"/>
<stop offset="0.792969" stop-color="#431668"/>
<stop offset="0.796875" stop-color="#431668"/>
<stop offset="0.800781" stop-color="#421668"/>
<stop offset="0.804687" stop-color="#411668"/>
<stop offset="0.808594" stop-color="#401668"/>
<stop offset="0.8125" stop-color="#3F1668"/>
<stop offset="0.816406" stop-color="#3E1668"/>
<stop offset="0.820312" stop-color="#3D1667"/>
<stop offset="0.824219" stop-color="#3C1667"/>
<stop offset="0.828125" stop-color="#3C1567"/>
<stop offset="0.832031" stop-color="#3B1567"/>
<stop offset="0.835938" stop-color="#3A1567"/>
<stop offset="0.839844" stop-color="#391567"/>
<stop offset="0.84375" stop-color="#381567"/>
<stop offset="0.847656" stop-color="#371567"/>
<stop offset="0.851562" stop-color="#361567"/>
<stop offset="0.855469" stop-color="#351567"/>
<stop offset="0.859375" stop-color="#351567"/>
<stop offset="0.863281" stop-color="#341566"/>
<stop offset="0.867187" stop-color="#331566"/>
<stop offset="0.871094" stop-color="#321566"/>
<stop offset="0.875" stop-color="#311566"/>
<stop offset="0.878906" stop-color="#301566"/>
<stop offset="0.882812" stop-color="#2F1566"/>
<stop offset="0.886719" stop-color="#2E1566"/>
<stop offset="0.890625" stop-color="#2E1566"/>
<stop offset="0.894531" stop-color="#2D1566"/>
<stop offset="0.898438" stop-color="#2C1566"/>
<stop offset="0.902344" stop-color="#2B1566"/>
<stop offset="0.90625" stop-color="#2A1565"/>
<stop offset="0.910156" stop-color="#291565"/>
<stop offset="0.914062" stop-color="#281565"/>
<stop offset="0.917969" stop-color="#271465"/>
<stop offset="0.921875" stop-color="#271465"/>
<stop offset="0.925781" stop-color="#261465"/>
<stop offset="0.929687" stop-color="#251465"/>
<stop offset="0.933594" stop-color="#241465"/>
<stop offset="0.9375" stop-color="#231465"/>
<stop offset="0.941406" stop-color="#221465"/>
<stop offset="0.945312" stop-color="#211465"/>
<stop offset="0.949219" stop-color="#201465"/>
<stop offset="0.953125" stop-color="#201464"/>
<stop offset="0.957031" stop-color="#1F1464"/>
<stop offset="0.960938" stop-color="#1E1464"/>
<stop offset="0.964844" stop-color="#1D1464"/>
<stop offset="0.96875" stop-color="#1C1464"/>
<stop offset="0.972656" stop-color="#1C1464"/>
<stop offset="0.976562" stop-color="#1B1464"/>
<stop offset="0.984375" stop-color="#1B1464"/>
<stop offset="1" stop-color="#1B1464"/>
</linearGradient>
</defs>
</svg>
