<svg width="68" height="79" viewBox="0 0 68 79" fill="none" xmlns="http://www.w3.org/2000/svg">
<mask id="mask0_9_269" style="mask-type:luminance" maskUnits="userSpaceOnUse" x="0" y="0" width="68" height="79">
<path d="M0 0H67.255V78.87H0V0Z" fill="white"/>
</mask>
<g mask="url(#mask0_9_269)">
<mask id="mask1_9_269" style="mask-type:luminance" maskUnits="userSpaceOnUse" x="0" y="0" width="68" height="79">
<path d="M11.8973 63.6693C11.3977 64.6663 10.3717 65.3564 9.17061 65.3564C7.48235 65.3564 6.11279 63.9953 6.11279 62.3168C6.11279 60.6383 7.48235 59.2772 9.17061 59.2772C10.3689 59.2772 11.3948 59.9673 11.8973 60.9643H20.0429V38.0077C20.0429 37.2605 20.6516 36.6581 21.4 36.6581C22.1513 36.6581 22.7571 37.2633 22.7571 38.0077V62.3139C22.7571 63.0612 22.1484 63.6636 21.4 63.6636H11.8973V63.6693ZM27.5128 36.6609C26.7615 36.6609 26.1557 37.2662 26.1557 38.0106V67.0434H18.0101C17.5105 66.0464 16.4845 65.3564 15.2844 65.3564C13.5951 65.3564 12.2265 66.7165 12.2265 68.3959C12.2265 70.0744 13.5951 71.4346 15.2844 71.4346C16.4816 71.4346 17.5076 70.7445 18.0101 69.7475H27.5128C28.2651 69.7475 28.8709 69.1423 28.8709 68.3988V38.0106C28.8709 37.2662 28.2622 36.6609 27.5128 36.6609ZM45.855 22.8184C45.855 21.1399 44.4864 19.7798 42.7972 19.7798C41.1079 19.7798 39.7393 21.1399 39.7393 22.8184C39.7393 24.4978 41.1079 25.858 42.7972 25.858C44.4864 25.858 45.855 24.4978 45.855 22.8184ZM27.5128 22.8184C27.5128 21.1399 26.1442 19.7798 24.455 19.7798C22.7657 19.7798 21.3971 21.1399 21.3971 22.8184C21.3971 24.4978 22.7657 25.858 24.455 25.858C26.1442 25.858 27.5128 24.4978 27.5128 22.8184ZM34.9865 73.114V38.0106C34.9865 37.2633 34.3778 36.6609 33.6294 36.6609C32.8772 36.6609 32.2713 37.2662 32.2713 38.0106V73.114C31.2683 73.6106 30.5735 74.6305 30.5735 75.8238C30.5735 77.5023 31.9431 78.8634 33.6313 78.8634C35.3206 78.8634 36.6901 77.5023 36.6901 75.8238C36.6844 74.6305 35.9895 73.6106 34.9865 73.114ZM51.9678 65.3564C50.7705 65.3564 49.7445 66.0464 49.242 67.0434H41.0964V38.0106C41.0964 37.2633 40.4878 36.6609 39.7393 36.6609C38.9871 36.6609 38.3813 37.2662 38.3813 38.0106V68.3959C38.3813 69.1423 38.9899 69.7446 39.7393 69.7446H49.242C49.7416 70.7416 50.7676 71.4317 51.9678 71.4317C53.657 71.4317 55.0256 70.0716 55.0256 68.3931C55.0256 66.7165 53.657 65.3564 51.9678 65.3564ZM58.0844 59.28C56.8861 59.28 55.8602 59.9701 55.3577 60.9671H47.2121V38.0106C47.2121 37.2633 46.6034 36.6609 45.855 36.6609C45.1037 36.6609 44.4979 37.2662 44.4979 38.0106V62.3168C44.4979 63.064 45.1066 63.6664 45.855 63.6664H55.3577C55.8573 64.6634 56.8833 65.3535 58.0844 65.3535C59.7727 65.3535 61.1422 63.9924 61.1422 62.3139C61.1393 60.6411 59.7698 59.28 58.0844 59.28ZM64.1972 53.2047C62.9999 53.2047 61.9739 53.8948 61.4705 54.8918H53.3258V38.0106C53.3258 37.7999 53.277 37.5922 53.1823 37.4053L53.1086 37.2547C49.5014 30.088 49.5129 27.5651 53.1794 20.3898C53.277 20.2001 53.3287 19.9923 53.3287 19.7798C53.3287 8.97393 44.5917 0.10586 33.8572 0.0124512H33.3949C22.6605 0.10586 13.9263 8.97393 13.9263 19.7798C13.9263 19.9923 13.978 20.203 14.0756 20.3898C17.7421 27.5651 17.7536 30.088 14.1464 37.2547L14.0727 37.4053C13.978 37.5922 13.9292 37.7999 13.9292 38.0106V54.8918H5.78451C5.28397 53.8948 4.25799 53.2047 3.05783 53.2047C1.36861 53.2047 0 54.5648 0 56.2433C0 57.9228 1.36861 59.2829 3.05783 59.2829C4.25512 59.2829 5.28109 58.5928 5.78451 57.5958H15.2872C16.0385 57.5958 16.6443 56.9906 16.6443 56.2462V38.3337C20.5166 30.5961 20.5281 27.1504 16.6472 19.47C16.8128 10.2836 24.275 2.7985 33.4208 2.71939H33.8323C42.9771 2.7985 50.4393 10.2836 50.6049 19.47C46.724 27.1533 46.7355 30.5961 50.6078 38.3337V56.2462C50.6078 56.9935 51.2165 57.5958 51.9649 57.5958H61.4676C61.9682 58.5928 62.9941 59.2829 64.1943 59.2829C65.8835 59.2829 67.2521 57.9228 67.2521 56.2433C67.255 54.562 65.8864 53.2047 64.1972 53.2047Z" fill="white"/>
</mask>
<g mask="url(#mask1_9_269)">
<path d="M0 0.0124512V78.8634H67.255V0.0124512H0Z" fill="url(#paint0_linear_9_269)"/>
</g>
</g>
<defs>
<linearGradient id="paint0_linear_9_269" x1="33.6269" y1="0.0120155" x2="33.6269" y2="78.8633" gradientUnits="userSpaceOnUse">
<stop stop-color="#ED1E79"/>
<stop offset="0.03125" stop-color="#ED1E79"/>
<stop offset="0.0390625" stop-color="#ED1E79"/>
<stop offset="0.0429688" stop-color="#EC1E79"/>
<stop offset="0.046875" stop-color="#EB1E79"/>
<stop offset="0.0507812" stop-color="#EA1E79"/>
<stop offset="0.0546875" stop-color="#E91E79"/>
<stop offset="0.0585937" stop-color="#E81E79"/>
<stop offset="0.0625" stop-color="#E71E79"/>
<stop offset="0.0664062" stop-color="#E61E78"/>
<stop offset="0.0703125" stop-color="#E51E78"/>
<stop offset="0.0742188" stop-color="#E51E78"/>
<stop offset="0.078125" stop-color="#E41E78"/>
<stop offset="0.0820313" stop-color="#E31E78"/>
<stop offset="0.0859375" stop-color="#E21E78"/>
<stop offset="0.0898438" stop-color="#E11E78"/>
<stop offset="0.09375" stop-color="#E01D78"/>
<stop offset="0.0976562" stop-color="#DF1D78"/>
<stop offset="0.101562" stop-color="#DE1D78"/>
<stop offset="0.105469" stop-color="#DE1D78"/>
<stop offset="0.109375" stop-color="#DD1D77"/>
<stop offset="0.113281" stop-color="#DC1D77"/>
<stop offset="0.117188" stop-color="#DB1D77"/>
<stop offset="0.121094" stop-color="#DA1D77"/>
<stop offset="0.125" stop-color="#D91D77"/>
<stop offset="0.128906" stop-color="#D81D77"/>
<stop offset="0.132813" stop-color="#D71D77"/>
<stop offset="0.136719" stop-color="#D71D77"/>
<stop offset="0.140625" stop-color="#D61D77"/>
<stop offset="0.144531" stop-color="#D51D77"/>
<stop offset="0.148437" stop-color="#D41D77"/>
<stop offset="0.152344" stop-color="#D31D77"/>
<stop offset="0.15625" stop-color="#D21D76"/>
<stop offset="0.160156" stop-color="#D11D76"/>
<stop offset="0.164063" stop-color="#D01D76"/>
<stop offset="0.167969" stop-color="#D01D76"/>
<stop offset="0.171875" stop-color="#CF1D76"/>
<stop offset="0.175781" stop-color="#CE1D76"/>
<stop offset="0.179688" stop-color="#CD1D76"/>
<stop offset="0.183594" stop-color="#CC1C76"/>
<stop offset="0.1875" stop-color="#CB1C76"/>
<stop offset="0.191406" stop-color="#CA1C76"/>
<stop offset="0.195312" stop-color="#C91C76"/>
<stop offset="0.199219" stop-color="#C91C75"/>
<stop offset="0.203125" stop-color="#C81C75"/>
<stop offset="0.207031" stop-color="#C71C75"/>
<stop offset="0.210938" stop-color="#C61C75"/>
<stop offset="0.214844" stop-color="#C51C75"/>
<stop offset="0.21875" stop-color="#C41C75"/>
<stop offset="0.222656" stop-color="#C31C75"/>
<stop offset="0.226563" stop-color="#C21C75"/>
<stop offset="0.230469" stop-color="#C21C75"/>
<stop offset="0.234375" stop-color="#C11C75"/>
<stop offset="0.238281" stop-color="#C01C75"/>
<stop offset="0.242187" stop-color="#BF1C74"/>
<stop offset="0.246094" stop-color="#BE1C74"/>
<stop offset="0.25" stop-color="#BD1C74"/>
<stop offset="0.253906" stop-color="#BC1C74"/>
<stop offset="0.257812" stop-color="#BB1C74"/>
<stop offset="0.261719" stop-color="#BB1C74"/>
<stop offset="0.265625" stop-color="#BA1C74"/>
<stop offset="0.269531" stop-color="#B91C74"/>
<stop offset="0.273438" stop-color="#B81C74"/>
<stop offset="0.277344" stop-color="#B71B74"/>
<stop offset="0.28125" stop-color="#B61B74"/>
<stop offset="0.285156" stop-color="#B51B74"/>
<stop offset="0.289062" stop-color="#B41B73"/>
<stop offset="0.292969" stop-color="#B31B73"/>
<stop offset="0.296875" stop-color="#B31B73"/>
<stop offset="0.300781" stop-color="#B21B73"/>
<stop offset="0.304688" stop-color="#B11B73"/>
<stop offset="0.308594" stop-color="#B01B73"/>
<stop offset="0.3125" stop-color="#AF1B73"/>
<stop offset="0.316406" stop-color="#AE1B73"/>
<stop offset="0.320313" stop-color="#AD1B73"/>
<stop offset="0.324219" stop-color="#AC1B73"/>
<stop offset="0.328125" stop-color="#AC1B73"/>
<stop offset="0.332031" stop-color="#AB1B72"/>
<stop offset="0.335937" stop-color="#AA1B72"/>
<stop offset="0.339844" stop-color="#A91B72"/>
<stop offset="0.34375" stop-color="#A81B72"/>
<stop offset="0.347656" stop-color="#A71B72"/>
<stop offset="0.351563" stop-color="#A61B72"/>
<stop offset="0.355469" stop-color="#A51B72"/>
<stop offset="0.359375" stop-color="#A51B72"/>
<stop offset="0.363281" stop-color="#A41B72"/>
<stop offset="0.367188" stop-color="#A31A72"/>
<stop offset="0.371094" stop-color="#A21A72"/>
<stop offset="0.375" stop-color="#A11A71"/>
<stop offset="0.378906" stop-color="#A01A71"/>
<stop offset="0.382812" stop-color="#9F1A71"/>
<stop offset="0.386719" stop-color="#9E1A71"/>
<stop offset="0.390625" stop-color="#9E1A71"/>
<stop offset="0.394531" stop-color="#9D1A71"/>
<stop offset="0.398438" stop-color="#9C1A71"/>
<stop offset="0.402344" stop-color="#9B1A71"/>
<stop offset="0.40625" stop-color="#9A1A71"/>
<stop offset="0.410156" stop-color="#991A71"/>
<stop offset="0.414063" stop-color="#981A71"/>
<stop offset="0.417969" stop-color="#971A71"/>
<stop offset="0.421875" stop-color="#971A70"/>
<stop offset="0.425781" stop-color="#961A70"/>
<stop offset="0.429687" stop-color="#951A70"/>
<stop offset="0.433594" stop-color="#941A70"/>
<stop offset="0.4375" stop-color="#931A70"/>
<stop offset="0.441406" stop-color="#921A70"/>
<stop offset="0.445313" stop-color="#911A70"/>
<stop offset="0.449219" stop-color="#901A70"/>
<stop offset="0.453125" stop-color="#901A70"/>
<stop offset="0.457031" stop-color="#8F1A70"/>
<stop offset="0.460938" stop-color="#8E1970"/>
<stop offset="0.464844" stop-color="#8D196F"/>
<stop offset="0.46875" stop-color="#8C196F"/>
<stop offset="0.472656" stop-color="#8B196F"/>
<stop offset="0.476562" stop-color="#8A196F"/>
<stop offset="0.480469" stop-color="#89196F"/>
<stop offset="0.484375" stop-color="#89196F"/>
<stop offset="0.488281" stop-color="#88196F"/>
<stop offset="0.492188" stop-color="#87196F"/>
<stop offset="0.496094" stop-color="#86196F"/>
<stop offset="0.5" stop-color="#85196F"/>
<stop offset="0.503906" stop-color="#84196F"/>
<stop offset="0.507813" stop-color="#83196E"/>
<stop offset="0.511719" stop-color="#82196E"/>
<stop offset="0.515625" stop-color="#82196E"/>
<stop offset="0.519531" stop-color="#81196E"/>
<stop offset="0.523437" stop-color="#80196E"/>
<stop offset="0.527344" stop-color="#7F196E"/>
<stop offset="0.53125" stop-color="#7E196E"/>
<stop offset="0.535156" stop-color="#7D196E"/>
<stop offset="0.539062" stop-color="#7C196E"/>
<stop offset="0.542969" stop-color="#7B196E"/>
<stop offset="0.546875" stop-color="#7B196E"/>
<stop offset="0.550781" stop-color="#7A186E"/>
<stop offset="0.554688" stop-color="#79186D"/>
<stop offset="0.558594" stop-color="#78186D"/>
<stop offset="0.5625" stop-color="#77186D"/>
<stop offset="0.566406" stop-color="#76186D"/>
<stop offset="0.570312" stop-color="#75186D"/>
<stop offset="0.574219" stop-color="#74186D"/>
<stop offset="0.578125" stop-color="#74186D"/>
<stop offset="0.582031" stop-color="#73186D"/>
<stop offset="0.585938" stop-color="#72186D"/>
<stop offset="0.589844" stop-color="#71186D"/>
<stop offset="0.59375" stop-color="#70186D"/>
<stop offset="0.597656" stop-color="#6F186C"/>
<stop offset="0.601563" stop-color="#6E186C"/>
<stop offset="0.605469" stop-color="#6D186C"/>
<stop offset="0.609375" stop-color="#6D186C"/>
<stop offset="0.613281" stop-color="#6C186C"/>
<stop offset="0.617187" stop-color="#6B186C"/>
<stop offset="0.621094" stop-color="#6A186C"/>
<stop offset="0.625" stop-color="#69186C"/>
<stop offset="0.628906" stop-color="#68186C"/>
<stop offset="0.632813" stop-color="#67186C"/>
<stop offset="0.636719" stop-color="#66186C"/>
<stop offset="0.640625" stop-color="#66186B"/>
<stop offset="0.644531" stop-color="#65176B"/>
<stop offset="0.648438" stop-color="#64176B"/>
<stop offset="0.652344" stop-color="#63176B"/>
<stop offset="0.65625" stop-color="#62176B"/>
<stop offset="0.660156" stop-color="#61176B"/>
<stop offset="0.664062" stop-color="#60176B"/>
<stop offset="0.667969" stop-color="#5F176B"/>
<stop offset="0.671875" stop-color="#5F176B"/>
<stop offset="0.675781" stop-color="#5E176B"/>
<stop offset="0.679688" stop-color="#5D176B"/>
<stop offset="0.683594" stop-color="#5C176B"/>
<stop offset="0.6875" stop-color="#5B176A"/>
<stop offset="0.691406" stop-color="#5A176A"/>
<stop offset="0.695313" stop-color="#59176A"/>
<stop offset="0.699219" stop-color="#58176A"/>
<stop offset="0.703125" stop-color="#58176A"/>
<stop offset="0.707031" stop-color="#57176A"/>
<stop offset="0.710937" stop-color="#56176A"/>
<stop offset="0.714844" stop-color="#55176A"/>
<stop offset="0.71875" stop-color="#54176A"/>
<stop offset="0.722656" stop-color="#53176A"/>
<stop offset="0.726563" stop-color="#52176A"/>
<stop offset="0.730469" stop-color="#511769"/>
<stop offset="0.734375" stop-color="#511669"/>
<stop offset="0.738281" stop-color="#501669"/>
<stop offset="0.742188" stop-color="#4F1669"/>
<stop offset="0.746094" stop-color="#4E1669"/>
<stop offset="0.75" stop-color="#4D1669"/>
<stop offset="0.753906" stop-color="#4C1669"/>
<stop offset="0.757812" stop-color="#4B1669"/>
<stop offset="0.761719" stop-color="#4A1669"/>
<stop offset="0.765625" stop-color="#4A1669"/>
<stop offset="0.769531" stop-color="#491669"/>
<stop offset="0.773438" stop-color="#481668"/>
<stop offset="0.777344" stop-color="#471668"/>
<stop offset="0.78125" stop-color="#461668"/>
<stop offset="0.785156" stop-color="#451668"/>
<stop offset="0.789063" stop-color="#441668"/>
<stop offset="0.792969" stop-color="#431668"/>
<stop offset="0.796875" stop-color="#431668"/>
<stop offset="0.800781" stop-color="#421668"/>
<stop offset="0.804687" stop-color="#411668"/>
<stop offset="0.808594" stop-color="#401668"/>
<stop offset="0.8125" stop-color="#3F1668"/>
<stop offset="0.816406" stop-color="#3E1668"/>
<stop offset="0.820313" stop-color="#3D1667"/>
<stop offset="0.824219" stop-color="#3C1667"/>
<stop offset="0.828125" stop-color="#3C1567"/>
<stop offset="0.832031" stop-color="#3B1567"/>
<stop offset="0.835938" stop-color="#3A1567"/>
<stop offset="0.839844" stop-color="#391567"/>
<stop offset="0.84375" stop-color="#381567"/>
<stop offset="0.847656" stop-color="#371567"/>
<stop offset="0.851562" stop-color="#361567"/>
<stop offset="0.855469" stop-color="#351567"/>
<stop offset="0.859375" stop-color="#351567"/>
<stop offset="0.863281" stop-color="#341566"/>
<stop offset="0.867188" stop-color="#331566"/>
<stop offset="0.871094" stop-color="#321566"/>
<stop offset="0.875" stop-color="#311566"/>
<stop offset="0.878906" stop-color="#301566"/>
<stop offset="0.882813" stop-color="#2F1566"/>
<stop offset="0.886719" stop-color="#2E1566"/>
<stop offset="0.890625" stop-color="#2E1566"/>
<stop offset="0.894531" stop-color="#2D1566"/>
<stop offset="0.898437" stop-color="#2C1566"/>
<stop offset="0.902344" stop-color="#2B1566"/>
<stop offset="0.90625" stop-color="#2A1565"/>
<stop offset="0.910156" stop-color="#291565"/>
<stop offset="0.914063" stop-color="#281565"/>
<stop offset="0.917969" stop-color="#271465"/>
<stop offset="0.921875" stop-color="#271465"/>
<stop offset="0.925781" stop-color="#261465"/>
<stop offset="0.929688" stop-color="#251465"/>
<stop offset="0.933594" stop-color="#241465"/>
<stop offset="0.9375" stop-color="#231465"/>
<stop offset="0.941406" stop-color="#221465"/>
<stop offset="0.945312" stop-color="#211465"/>
<stop offset="0.949219" stop-color="#201465"/>
<stop offset="0.953125" stop-color="#201464"/>
<stop offset="0.957031" stop-color="#1F1464"/>
<stop offset="0.960938" stop-color="#1E1464"/>
<stop offset="0.964844" stop-color="#1D1464"/>
<stop offset="0.96875" stop-color="#1C1464"/>
<stop offset="0.972656" stop-color="#1C1464"/>
<stop offset="0.976562" stop-color="#1B1464"/>
<stop offset="0.984375" stop-color="#1B1464"/>
<stop offset="1" stop-color="#1B1464"/>
</linearGradient>
</defs>
</svg>
