<svg width="102" height="102" viewBox="0 0 102 102" fill="none" xmlns="http://www.w3.org/2000/svg">
<path d="M33.9804 92.516L23.5 82.0355L13.0196 92.516C15.941 94.704 19.5692 96 23.5 96C27.4308 96 31.059 94.704 33.9804 92.516ZM37.516 88.9804C39.704 86.059 41 82.4308 41 78.5C41 74.5692 39.704 70.941 37.516 68.0196L27.0355 78.5L37.516 88.9804ZM9.48404 68.0196C7.29601 70.941 6 74.5692 6 78.5C6 82.4308 7.29601 86.059 9.48404 88.9804L19.9645 78.5L9.48404 68.0196ZM13.0196 64.484L23.5 74.9645L33.9804 64.484C31.059 62.296 27.4308 61 23.5 61C19.5692 61 15.941 62.296 13.0196 64.484ZM23.5 46C11.0736 46 1 35.9264 1 23.5C1 11.0736 11.0736 1 23.5 1C35.9264 1 46 11.0736 46 23.5C46 35.9264 35.9264 46 23.5 46ZM23.5 41C33.165 41 41 33.165 41 23.5C41 13.835 33.165 6 23.5 6C13.835 6 6 13.835 6 23.5C6 33.165 13.835 41 23.5 41ZM29.0478 16.9383C29.9104 15.8601 31.4836 15.6853 32.5617 16.5478C33.6399 17.4104 33.8147 18.9836 32.9522 20.0617L22.9522 32.5617C22.0214 33.7253 20.2858 33.8214 19.2322 32.7678L14.2322 27.7678C13.2559 26.7915 13.2559 25.2085 14.2322 24.2322C15.2085 23.2559 16.7915 23.2559 17.7678 24.2322L20.7927 27.2572L29.0478 16.9383ZM58.5 21C57.1193 21 56 19.8807 56 18.5C56 17.1193 57.1193 16 58.5 16H98.5C99.8807 16 101 17.1193 101 18.5C101 19.8807 99.8807 21 98.5 21H58.5ZM58.5 31C57.1193 31 56 29.8807 56 28.5C56 27.1193 57.1193 26 58.5 26H88.5C89.8807 26 91 27.1193 91 28.5C91 29.8807 89.8807 31 88.5 31H58.5ZM23.5 101C11.0736 101 1 90.9264 1 78.5C1 66.0736 11.0736 56 23.5 56C35.9264 56 46 66.0736 46 78.5C46 90.9264 35.9264 101 23.5 101ZM58.5 76C57.1193 76 56 74.8807 56 73.5C56 72.1193 57.1193 71 58.5 71H98.5C99.8807 71 101 72.1193 101 73.5C101 74.8807 99.8807 76 98.5 76H58.5ZM58.5 86C57.1193 86 56 84.8807 56 83.5C56 82.1193 57.1193 81 58.5 81H88.5C89.8807 81 91 82.1193 91 83.5C91 84.8807 89.8807 86 88.5 86H58.5Z" fill="#564781" stroke="#564781" stroke-width="0.204"/>
</svg>
