<svg width="100" height="100" viewBox="0 0 100 100" fill="none" xmlns="http://www.w3.org/2000/svg">
<path d="M63.5417 66.638C68.7193 66.638 72.9167 71.4329 72.9167 77.3477V84.4969L72.8838 85.0131C71.589 95.1336 63.6313 100 50.2783 100C36.9734 100 28.8888 95.1892 27.1436 85.1851L27.0833 84.4874V77.3477C27.0833 71.4329 31.2807 66.638 36.4583 66.638H63.5417ZM63.5417 73.7778H36.4583C34.7324 73.7778 33.3333 75.3761 33.3333 77.3477V84.1084C34.4991 89.8222 39.7943 92.8602 50.2783 92.8602C60.7619 92.8602 65.8193 89.8551 66.6667 84.2169V77.3477C66.6667 75.3761 65.2676 73.7778 63.5417 73.7778ZM67.6815 38.0737L90.625 38.0788C95.8027 38.0788 100 42.8737 100 48.7885V55.9377L99.9671 56.454C98.6723 66.5744 90.7147 71.4409 77.3616 71.4409L76.0497 71.4248C74.8204 68.0283 72.563 65.2472 69.7223 63.5797C71.8674 64.0601 74.4087 64.3011 77.3616 64.3011C87.8452 64.3011 92.9027 61.296 93.75 55.6577V48.7885C93.75 46.8169 92.3509 45.2186 90.625 45.2186H68.75C68.75 42.7132 68.3735 40.3083 67.6815 38.0737ZM9.375 38.0788L32.3185 38.0737C31.7419 39.9359 31.3843 41.9163 31.2811 43.9746L31.25 45.2186H9.375C7.64911 45.2186 6.25 46.8169 6.25 48.7885V55.5493C7.41579 61.2631 12.7109 64.3011 23.195 64.3011C25.7869 64.3011 28.0472 64.1174 29.9942 63.7556C27.2827 65.4377 25.1332 68.1488 23.9431 71.4291L23.195 71.4409C9.89005 71.4409 1.80542 66.6301 0.0602613 56.626L0 55.9283V48.7885C0 42.8737 4.19733 38.0788 9.375 38.0788ZM50 28.5591C58.0541 28.5591 64.5833 36.0178 64.5833 45.2186C64.5833 54.4194 58.0541 61.8781 50 61.8781C41.9458 61.8781 35.4167 54.4194 35.4167 45.2186C35.4167 36.0178 41.9458 28.5591 50 28.5591ZM50 35.6989C45.3976 35.6989 41.6667 39.961 41.6667 45.2186C41.6667 50.4762 45.3976 54.7383 50 54.7383C54.6024 54.7383 58.3333 50.4762 58.3333 45.2186C58.3333 39.961 54.6024 35.6989 50 35.6989ZM77.0833 0C85.1375 0 91.6667 7.45871 91.6667 16.6595C91.6667 25.8603 85.1375 33.319 77.0833 33.319C69.0292 33.319 62.5 25.8603 62.5 16.6595C62.5 7.45871 69.0292 0 77.0833 0ZM22.9167 0C30.9708 0 37.5 7.45871 37.5 16.6595C37.5 25.8603 30.9708 33.319 22.9167 33.319C14.8625 33.319 8.33333 25.8603 8.33333 16.6595C8.33333 7.45871 14.8625 0 22.9167 0ZM77.0833 7.13978C72.481 7.13978 68.75 11.4019 68.75 16.6595C68.75 21.9171 72.481 26.1792 77.0833 26.1792C81.6857 26.1792 85.4167 21.9171 85.4167 16.6595C85.4167 11.4019 81.6857 7.13978 77.0833 7.13978ZM22.9167 7.13978C18.3143 7.13978 14.5833 11.4019 14.5833 16.6595C14.5833 21.9171 18.3143 26.1792 22.9167 26.1792C27.519 26.1792 31.25 21.9171 31.25 16.6595C31.25 11.4019 27.519 7.13978 22.9167 7.13978Z" fill="#564781"/>
</svg>
