<svg width="104" height="104" viewBox="0 0 104 104" fill="none" xmlns="http://www.w3.org/2000/svg">
<path d="M9.59114 18.8476C10.6846 18.8476 11.571 17.909 11.571 16.7513C11.571 15.5936 10.6846 14.655 9.59114 14.655C8.49772 14.655 7.61133 15.5936 7.61133 16.7513C7.61133 17.909 8.49772 18.8476 9.59114 18.8476Z" fill="#564781" stroke="#564781" stroke-width="1.54688"/>
<path d="M29.7335 41.2156H26.0741C19.6892 41.2156 13.5659 43.9012 9.05113 48.6815C4.53637 53.4619 2 59.9454 2 66.7058V70.6274C2.00043 75.2897 3.20939 79.8625 5.49516 83.8474C7.78093 87.8323 11.0558 91.0766 14.963 93.2266V102H26.0741L27.9259 98.0784C28.7113 98.1535 66.8148 98.0784 66.8148 98.0784L68.6667 102H77.9259V94.1568C86.2396 90.7095 92.938 84.0717 94.5926 74.5489L102 70.6274V56.9019H92.7407C90.3504 51.6519 86.4641 47.3288 81.6296 44.5421V31.4117C78.5307 31.3612 75.484 32.2595 72.8558 33.9988C70.2276 35.738 68.1299 38.2441 66.8148 41.2156H59.5017" stroke="#564781" stroke-width="3.09375" stroke-linecap="round" stroke-linejoin="round"/>
<path d="M78.852 58.8628C80.3861 58.8628 81.6298 57.546 81.6298 55.9216C81.6298 54.2973 80.3861 52.9805 78.852 52.9805C77.3179 52.9805 76.0742 54.2973 76.0742 55.9216C76.0742 57.546 77.3179 58.8628 78.852 58.8628Z" fill="#564781" stroke="#564781" stroke-width="1.54688"/>
<path d="M22.3701 49.0588H66.8146" stroke="#564781" stroke-width="3.09375" stroke-linecap="round" stroke-linejoin="round"/>
<path d="M44.5927 49.0587C54.8202 49.0587 63.1113 40.28 63.1113 29.4509C63.1113 18.6217 54.8202 9.84302 44.5927 9.84302C34.3652 9.84302 26.0742 18.6217 26.0742 29.4509C26.0742 40.28 34.3652 49.0587 44.5927 49.0587Z" stroke="#564781" stroke-width="3.09375" stroke-linecap="round" stroke-linejoin="round"/>
<path d="M52.0004 19.647L37.1855 39.2548" stroke="#564781" stroke-width="3.09375" stroke-linecap="round" stroke-linejoin="round"/>
<path d="M38.1108 25.5293C39.6449 25.5293 40.8886 24.2125 40.8886 22.5881C40.8886 20.9638 39.6449 19.647 38.1108 19.647C36.5767 19.647 35.333 20.9638 35.333 22.5881C35.333 24.2125 36.5767 25.5293 38.1108 25.5293Z" stroke="#564781" stroke-width="3.09375" stroke-linecap="round" stroke-linejoin="round"/>
<path d="M51.0737 39.2549C52.6078 39.2549 53.8515 37.9381 53.8515 36.3137C53.8515 34.6894 52.6078 33.3726 51.0737 33.3726C49.5396 33.3726 48.2959 34.6894 48.2959 36.3137C48.2959 37.9381 49.5396 39.2549 51.0737 39.2549Z" stroke="#564781" stroke-width="3.09375" stroke-linecap="round" stroke-linejoin="round"/>
<path d="M72.3707 9.84314C74.4162 9.84314 76.0744 8.08739 76.0744 5.92157C76.0744 3.75575 74.4162 2 72.3707 2C70.3252 2 68.667 3.75575 68.667 5.92157C68.667 8.08739 70.3252 9.84314 72.3707 9.84314Z" stroke="#564781" stroke-width="3.09375" stroke-linecap="round" stroke-linejoin="round"/>
<path d="M46.907 88.4058L56.0112 80.6938C56.7276 80.1142 57.2286 79.2863 57.4264 78.355C57.6243 77.4237 57.5065 76.4483 57.0936 75.5997C56.8321 75.1005 56.4708 74.6677 56.035 74.3315C55.5992 73.9953 55.0994 73.7639 54.5704 73.6534C54.0414 73.5429 53.496 73.556 52.9723 73.6917C52.4486 73.8274 51.9591 74.0825 51.5381 74.4391L48.2973 77.1842V61.8146C48.2973 60.7746 47.9071 59.7771 47.2126 59.0417C46.518 58.3062 45.5759 57.8931 44.5936 57.8931C43.6114 57.8931 42.6693 58.3062 41.9747 59.0417C41.2801 59.7771 40.8899 60.7746 40.8899 61.8146V77.185L37.8414 74.6027C37.0503 73.9183 36.0377 73.5888 35.0202 73.6843C34.0026 73.7799 33.0607 74.2931 32.3957 75.1142C31.8059 75.9284 31.5411 76.9549 31.6579 77.9735C31.7747 78.9921 32.2639 79.9216 33.0205 80.5627L42.2798 88.4058C42.9365 88.962 43.7524 89.2651 44.5934 89.2651C45.4343 89.2651 46.2503 88.962 46.907 88.4058Z" stroke="#564781" stroke-width="3.09375" stroke-linecap="round" stroke-linejoin="round"/>
<path d="M84.502 15.8328L90.0575 21.7151" stroke="#564781" stroke-width="3.09375" stroke-linecap="round" stroke-linejoin="round"/>
<path d="M90.0575 15.8328L84.502 21.7151" stroke="#564781" stroke-width="3.09375" stroke-linecap="round" stroke-linejoin="round"/>
</svg>
