<svg width="102" height="102" viewBox="0 0 102 102" fill="none" xmlns="http://www.w3.org/2000/svg">
<path d="M50.6946 68.6479C50.4172 68.65 50.1488 68.5456 49.9405 68.3547C49.7322 68.1638 49.5987 67.8996 49.5654 67.6127V11.4496C49.5654 11.1376 49.6844 10.8384 49.8962 10.6178C50.1079 10.3971 50.3951 10.2732 50.6946 10.2732C50.9941 10.2732 51.2813 10.3971 51.4931 10.6178C51.7049 10.8384 51.8238 11.1376 51.8238 11.4496V67.6127C51.7905 67.8996 51.657 68.1638 51.4488 68.3547C51.2405 68.5456 50.9721 68.65 50.6946 68.6479Z" fill="#564781" stroke="#564781"/>
<path d="M49.7342 53.3658L48.1985 52.7659C45.814 51.8751 43.4869 50.8259 41.2313 49.6248C36.4887 47.0131 31.9267 38.3898 31.7347 38.0251L30.5039 35.6723L32.9769 35.1193C33.2253 35.0487 39.2101 33.5547 46.6063 38.4957C53.4832 43.0838 51.7894 49.766 50.5585 51.9424L49.7342 53.3658ZM33.9254 37.2722C34.8175 38.8957 38.6567 45.5073 42.3154 47.566C44.4001 48.6694 46.5456 49.6436 48.7405 50.4836C49.26 49.3071 51.1683 44.272 45.3529 40.4251C39.5375 36.5781 35.2127 37.0487 33.9028 37.2722H33.9254Z" fill="#564781" stroke="#564781"/>
<path d="M51.2261 53.3663L50.4018 51.8958C49.1597 49.7311 47.4433 43.0607 54.354 38.4491C61.6261 33.5904 67.3511 34.9198 67.9835 35.0727L70.4564 35.7198L69.2256 38.0726C69.0336 38.4373 64.4716 47.0606 59.729 49.6723C57.4748 50.8543 55.1516 51.8876 52.7731 52.7663L51.2261 53.3663ZM65.375 37.1433C61.8839 37.236 58.4926 38.3756 55.6074 40.4255C49.8598 44.2725 51.7455 49.3429 52.2198 50.484C54.4156 49.6462 56.5612 48.672 58.645 47.5665C62.3036 45.5548 66.1429 38.8844 67.0349 37.2727C66.4856 37.1857 65.9307 37.1424 65.375 37.1433Z" fill="#564781" stroke="#564781"/>
<path d="M49.9601 34.2374L48.5486 33.7198C46.5999 32.9765 44.6957 32.1122 42.8462 31.1316C39.0069 29.0258 35.416 22.3554 35.0208 21.6025L33.8916 19.4614L36.15 18.8614C36.3646 18.8025 41.3105 17.5555 47.442 21.6378C53.1897 25.4729 51.7669 31.0492 50.7393 32.8845L49.9601 34.2374ZM37.3131 21.0025C38.6794 23.473 41.446 27.6729 43.9076 29.014C45.5371 29.908 47.2192 30.6939 48.9439 31.3669C49.452 30.1904 50.5473 26.52 46.2112 23.6259C43.6255 21.7059 40.4811 20.7788 37.3131 21.0025Z" fill="#564781" stroke="#564781"/>
<path d="M51.0002 34.237L50.2323 32.8841C49.1934 31.0724 47.7481 25.4961 53.5296 21.6374C59.5143 17.6375 64.2683 18.7199 64.8216 18.861L67.08 19.461L65.9508 21.6021C65.5556 22.355 61.9647 29.0254 58.1254 31.1313C56.2946 32.1105 54.4093 32.9747 52.4794 33.7194L51.0002 34.237ZM62.5858 21.0021C59.7847 21.0777 57.064 21.9926 54.7491 23.6374C50.4243 26.5314 51.5083 30.1901 52.0277 31.3783C53.7467 30.7004 55.4248 29.9146 57.0527 29.0254C59.5143 27.6843 62.2809 23.4844 63.6472 21.0139C63.294 20.9874 62.9395 20.9835 62.5858 21.0021Z" fill="#564781" stroke="#564781"/>
<path d="M49.9601 16.6141L48.5486 16.0847C46.599 15.3482 44.6946 14.4878 42.8462 13.5083C39.0069 11.4025 35.416 4.7321 35.0208 3.97918L33.8916 1.83807L36.15 1.23809C36.3646 1.23809 41.3105 -0.0677569 47.442 4.01448C53.1897 7.84966 51.7669 13.426 50.7393 15.2612L49.9601 16.6141ZM37.3131 3.41449C38.6794 5.88501 41.446 10.0849 43.9076 11.426C45.5371 12.3201 47.2192 13.1059 48.9439 13.7789C49.452 12.6025 50.5473 8.93198 46.2112 6.03794C43.628 4.11254 40.4816 3.18489 37.3131 3.41449Z" fill="#564781" stroke="#564781"/>
<path d="M51.0002 16.6142L50.2323 15.2613C49.1934 13.4496 47.7481 7.87333 53.5296 4.01462C59.5143 0.0147353 64.2683 1.09706 64.8216 1.23823L67.08 1.83821L65.9508 3.97932C65.5556 4.73224 61.9647 11.4026 58.1254 13.5085C56.2955 14.4863 54.41 15.3467 52.4794 16.0848L51.0002 16.6142ZM62.5858 3.35581C59.7839 3.43681 57.0636 4.35566 54.7491 6.00279C50.4243 8.89683 51.5083 12.5555 52.0277 13.7437C53.7447 13.0606 55.4224 12.275 57.0527 11.3909C59.5143 10.0497 62.2809 5.84986 63.6472 3.37934C63.2942 3.34803 62.9397 3.34018 62.5858 3.35581Z" fill="#564781" stroke="#564781"/>
<path d="M74.4083 101H55.2119V95.1176C55.2119 94.4706 54.0262 76.9064 66.7411 67.1067C68.3397 65.916 69.8055 64.5428 71.1111 63.0127L85.7229 45.3661C86.5924 44.3108 87.7926 43.6106 89.1105 43.3897V16.2964C89.1089 14.7841 89.6664 13.3292 90.6673 12.2338C91.6682 11.1385 93.0356 10.4868 94.4856 10.4142C95.2301 10.3809 95.9733 10.5055 96.6702 10.7805C97.367 11.0555 98.003 11.4753 98.5394 12.0142C99.124 12.6053 99.5883 13.3131 99.9046 14.0954C100.221 14.8776 100.382 15.7182 100.38 16.567V51.8601C100.382 53.5536 100.507 55.2446 100.753 56.9187C101.249 60.4481 101.43 67.2479 96.9472 72.4477C90.7366 79.6828 85.4745 85.2473 79.9076 91.1295L77.4572 93.6941L74.4083 95.7529V101ZM57.4703 98.6469H72.1499V94.4823L76.0796 91.8001L78.2702 89.4472C83.8146 83.565 89.0541 78.0358 95.2082 70.8242C99.0814 66.342 98.9007 60.3775 98.4604 57.2129C98.2215 55.4357 98.1083 53.6427 98.1216 51.8483V16.5552C98.1263 16.0278 98.0287 15.5048 97.8346 15.0176C97.6406 14.5304 97.3541 14.0891 96.9924 13.72C96.6778 13.4014 96.3045 13.1527 95.8949 12.9889C95.4854 12.8251 95.0481 12.7497 94.6098 12.7671C93.733 12.8006 92.903 13.1872 92.2943 13.8455C91.6856 14.5038 91.3458 15.3824 91.3464 16.2964V43.5427C92.1808 43.773 92.9534 44.1996 93.6048 44.7897C94.1675 45.2884 94.6291 45.899 94.9626 46.5858C95.2961 47.2726 95.4948 48.0218 95.547 48.7896C95.547 48.9425 95.547 49.0837 95.547 49.2366C95.5462 50.6497 95.0572 52.0153 94.1694 53.0836L79.2413 71.236C79.0423 71.4606 78.7671 71.5957 78.4741 71.6127C78.1811 71.6296 77.8933 71.527 77.6716 71.3266C77.4499 71.1263 77.3118 70.8439 77.2866 70.5393C77.2613 70.2347 77.3508 69.9318 77.5362 69.6948L92.5885 51.5895C93.1367 50.9406 93.4309 50.1009 93.4128 49.2366V49.0013C93.3415 48.0947 92.937 47.2518 92.2836 46.6485C91.7246 46.088 90.9917 45.7542 90.2172 45.7073H89.9913C89.514 45.7067 89.0418 45.8111 88.6059 46.0139C88.17 46.2166 87.7802 46.5131 87.4619 46.8838L72.85 64.5303C71.4354 66.1901 69.8486 67.6815 68.1187 68.9772C56.4202 78.0122 57.4703 94.8588 57.4703 95.0235V98.6469Z" fill="#564781" stroke="#564781"/>
<path d="M46.7877 101H27.5912V95.7531L24.3956 93.5297L22.1372 91.1768C16.5702 85.2946 11.3081 79.7301 5.06366 72.4832C0.546848 67.2834 0.750104 60.5189 1.25824 56.9543C1.49481 55.2792 1.61557 53.5887 1.61959 51.8956V16.6025C1.61908 15.7473 1.78491 14.9009 2.10708 14.1144C2.42925 13.3279 2.90108 12.6175 3.49406 12.0262C4.02782 11.486 4.66142 11.0646 5.35637 10.7876C6.05133 10.5105 6.7931 10.3835 7.53661 10.4145C8.93692 10.4756 10.2636 11.0847 11.2517 12.1203C11.779 12.668 12.1972 13.319 12.4821 14.0357C12.767 14.7525 12.9129 15.5209 12.9116 16.2966V43.4488C14.2296 43.6696 15.4298 44.3699 16.2992 45.4252L30.9111 63.0717C32.2167 64.6019 33.6825 65.9751 35.2811 67.1657C47.9959 76.9654 46.8554 94.5296 46.799 95.2708L46.7877 101ZM29.8496 98.6472H44.5293V95.1179C44.5293 94.859 45.6585 78.0125 33.9261 69.001C32.2083 67.6982 30.6364 66.1987 29.2399 64.5305L14.5602 46.9546C14.2407 46.5824 13.849 46.2851 13.4111 46.0823C12.9731 45.8795 12.4988 45.7758 12.0195 45.7781H11.8163C11.0661 45.812 10.3494 46.1107 9.78372 46.6252C9.13035 47.2285 8.72582 48.0714 8.65452 48.978C8.65452 49.0721 8.65452 49.1545 8.65452 49.2486C8.63408 50.1055 8.91979 50.9398 9.45625 51.5897L24.5085 69.6951C24.6939 69.9321 24.7834 70.2349 24.7582 70.5395C24.7329 70.8441 24.5948 71.1265 24.3731 71.3269C24.1515 71.5272 23.8636 71.6298 23.5706 71.6129C23.2776 71.596 23.0025 71.4608 22.8034 71.2362L7.78503 53.1191C6.87319 52.0485 6.36733 50.6682 6.36224 49.2368C6.36224 49.0839 6.36224 48.9427 6.36224 48.7898C6.47462 47.2375 7.17304 45.7949 8.30446 44.7782C8.97062 44.1686 9.76886 43.7366 10.6306 43.5194V16.2966C10.6317 15.8313 10.5445 15.3704 10.3739 14.9404C10.2034 14.5103 9.95293 14.1196 9.63692 13.7908C9.03404 13.1666 8.22791 12.8012 7.37852 12.7673C6.93911 12.7493 6.50085 12.8257 6.09097 12.9917C5.68108 13.1576 5.30834 13.4096 4.9959 13.732C4.63469 14.1015 4.34856 14.5429 4.15457 15.03C3.96057 15.5171 3.86267 16.0399 3.8667 16.5672V51.8603C3.86679 53.6676 3.73847 55.4725 3.48277 57.2601C3.03109 60.4248 2.86171 66.3893 6.73487 70.8715C12.9455 78.0831 18.185 83.6241 23.7294 89.4945L25.92 91.8474L29.8383 94.5296L29.8496 98.6472Z" fill="#564781" stroke="#564781"/>
</svg>
