<svg width="106" height="106" viewBox="0 0 106 106" fill="none" xmlns="http://www.w3.org/2000/svg">
<path d="M34.25 53.1252L46.75 64.3489L71.75 41.9014M103 53.1252C103 78.1602 68.875 96.3011 57.0088 101.853C55.7256 102.453 55.0837 102.754 54.1937 102.909C53.5 103.03 52.5 103.03 51.8063 102.909C50.9163 102.754 50.2744 102.453 48.9912 101.853C37.1247 96.3011 3 78.1602 3 53.1252V31.8988C3 27.4121 3 25.1687 3.81725 23.2403C4.53919 21.5367 5.71237 20.0167 7.23537 18.8116C8.95938 17.4474 11.2987 16.6597 15.9775 15.0843L49.4887 3.80067C50.7881 3.36317 51.4375 3.14442 52.1063 3.05766C52.6988 2.98078 53.3012 2.98078 53.8937 3.05766C54.5625 3.14442 55.2119 3.36317 56.5113 3.80067L90.0225 15.0843C94.7012 16.6597 97.0406 17.4474 98.7644 18.8116C100.287 20.0167 101.461 21.5367 102.182 23.2403C103 25.1687 103 27.4121 103 31.8988V53.1252Z" stroke="#564781" stroke-width="6" stroke-linecap="round" stroke-linejoin="round"/>
</svg>
