<svg width="108" height="102" viewBox="0 0 108 102" fill="none" xmlns="http://www.w3.org/2000/svg">
<path d="M44.85 101C30.3725 101 17.5107 92.9575 9.52069 80.5863C9.39401 80.4297 9.28158 80.2549 9.18793 80.0641C4.03611 71.8682 1 61.8299 1 51C1 40.1701 4.03611 30.1315 9.18793 21.9359C9.28158 21.7451 9.39371 21.5703 9.52039 21.4141C17.5104 9.04253 30.3725 1 44.85 1C44.8497 1 44.8503 1 44.85 1C62.3863 1 78.2009 12.868 85.1395 31.2346C85.6693 32.6369 85.1017 34.2635 83.8721 34.8676C82.6417 35.4713 81.2158 34.8244 80.6863 33.4221C79.7704 30.9979 78.6815 28.7026 77.4389 26.5486C72.6451 28.2561 67.5754 29.5779 62.3493 30.4912C63.2637 36.0277 63.801 42.0272 63.924 48.2354H67.4366C68.7755 48.2354 69.8611 49.4733 69.8611 51C69.8611 52.5267 68.7755 53.7646 67.4366 53.7646H63.924C63.6873 65.6934 61.9214 76.8513 58.8916 85.4333C55.3476 95.4715 50.3606 101 44.85 101ZM33.242 76.2162C36.0277 88.1851 40.5925 95.4708 44.85 95.4708C49.1081 95.4708 53.6737 88.183 56.4595 76.2099C48.8186 75.3056 40.8771 75.3066 33.242 76.2162ZM15.4135 80.1426C20.4589 86.7596 27.1891 91.6667 34.834 93.9849C33.3526 91.6692 31.9991 88.8057 30.8083 85.4333C29.8849 82.8176 29.0784 79.9622 28.3975 76.9191C23.9203 77.6859 19.5646 78.7654 15.4135 80.1426ZM5.92361 53.7646C6.35426 61.737 8.63605 69.1474 12.2828 75.4438C17.0701 73.7394 22.1322 72.4211 27.3504 71.5084C26.436 65.9723 25.8987 59.9725 25.7756 53.7642H5.92361V53.7646ZM30.625 53.7646C30.7517 59.9766 31.3026 65.6997 32.1597 70.7886C40.5052 69.7449 49.1972 69.7442 57.5412 70.7813C58.3976 65.6934 58.9477 59.9752 59.0747 53.7649L30.625 53.7646ZM30.625 48.2354H59.0744C58.9477 42.0234 58.3967 36.3003 57.54 31.2114C49.1905 32.2554 40.5092 32.2554 32.1597 31.2114C31.3029 36.3 30.752 42.0234 30.625 48.2354ZM5.92361 48.2354H25.7753C25.8987 42.0272 26.436 36.0273 27.3501 30.4912C22.1319 29.5786 17.0701 28.2602 12.2825 26.5559C8.63574 32.8525 6.35426 40.2627 5.92361 48.2354ZM33.242 25.7835C40.8816 26.6937 48.818 26.6934 56.458 25.7838C53.6725 13.8125 49.1078 6.52883 44.85 6.52883C40.5925 6.52883 36.0277 13.8146 33.242 25.7835ZM54.8654 8.01411C56.3471 10.3301 57.7006 13.1936 58.8916 16.5667C59.8151 19.1824 60.6212 22.0382 61.3025 25.0813C65.7903 24.312 70.1557 23.2297 74.3165 21.8481C69.2065 15.1329 62.4278 10.3008 54.8654 8.01411ZM15.4135 21.8571C19.5649 23.2339 23.9203 24.3134 28.3972 25.0806C29.0784 22.0375 29.8846 19.1824 30.808 16.5664C31.9988 13.1939 33.3526 10.3305 34.8337 8.0148C27.1891 10.3333 20.4589 15.24 15.4135 21.8571ZM64.3783 100.808C64.181 100.808 63.9816 100.78 63.7846 100.723C63.587 100.666 63.3991 100.582 63.224 100.473C62.8448 100.239 62.5384 99.9025 62.3217 99.5054C62.1569 99.2048 62.0411 98.8647 61.9877 98.5015C61.9414 98.1901 61.9417 97.8667 61.9935 97.5453C62.0271 97.3342 62.0817 97.1313 62.155 96.9395L66.7792 83.9439C68.9101 77.9578 72.7433 69.9996 81.3946 69.9996H87.5586C96.2102 69.9996 100.043 77.9575 102.174 83.9435L106.821 97.0031C107.325 98.4179 106.727 100.03 105.486 100.604C105.474 100.61 105.462 100.615 105.45 100.621C105.449 100.621 105.448 100.622 105.447 100.622C105.446 100.623 105.445 100.623 105.443 100.624C105.442 100.624 105.44 100.625 105.438 100.626C105.438 100.626 105.437 100.626 105.437 100.627C105.435 100.627 105.433 100.629 105.43 100.63C105.423 100.633 105.416 100.636 105.41 100.638V100.639C105.408 100.639 105.406 100.64 105.404 100.641C105.403 100.641 105.403 100.641 105.402 100.642C105.4 100.642 105.399 100.643 105.398 100.643C105.397 100.644 105.395 100.644 105.394 100.645C105.393 100.645 105.393 100.645 105.393 100.645C105.101 100.765 104.801 100.814 104.508 100.807H64.4453C64.4229 100.808 64.4005 100.808 64.3783 100.808ZM67.9794 95.2776H100.974L97.681 86.0228C95.0631 78.6677 92.0361 75.5292 87.5595 75.5292H81.3949C76.9183 75.5292 73.891 78.6677 71.2728 86.0232L67.9794 95.2776ZM84.4764 65.5901C78.627 65.5901 73.8682 60.1636 73.8682 53.4937C73.8682 46.8237 78.627 41.3975 84.4764 41.3975C90.3256 41.3975 95.0844 46.8237 95.0844 53.4937C95.0844 60.1636 90.3259 65.5901 84.4764 65.5901ZM84.4764 46.9267C81.3006 46.9267 78.7173 49.8724 78.7173 53.4937C78.7173 57.1149 81.3006 60.0609 84.4764 60.0609C87.652 60.0609 90.2353 57.1149 90.2353 53.4937C90.2353 49.8724 87.652 46.9267 84.4764 46.9267Z" fill="#564781"/>
<path d="M44.85 1C30.3725 1 17.5104 9.04253 9.52039 21.4141C9.39371 21.5703 9.28158 21.7451 9.18793 21.9359C4.03611 30.1315 1 40.1701 1 51C1 61.8299 4.03611 71.8682 9.18793 80.0641C9.28158 80.2549 9.39401 80.4297 9.5207 80.5863C17.5107 92.9575 30.3725 101 44.85 101C50.3606 101 55.3476 95.4715 58.8916 85.4333C61.9214 76.8513 63.6873 65.6934 63.924 53.7646H67.4366C68.7755 53.7646 69.8611 52.5267 69.8611 51C69.8611 49.4733 68.7755 48.2354 67.4366 48.2354H63.924C63.801 42.0272 63.2637 36.0277 62.3493 30.4912C67.5754 29.5779 72.6451 28.2561 77.439 26.5486C78.6815 28.7026 79.7704 30.9979 80.6863 33.4221C81.2158 34.8244 82.6417 35.4713 83.8721 34.8676C85.1017 34.2635 85.6693 32.6369 85.1396 31.2346C78.2009 12.868 62.3863 1 44.85 1ZM44.85 1C44.8497 1 44.8503 1 44.85 1ZM33.242 76.2162C36.0277 88.1851 40.5925 95.4708 44.85 95.4708C49.1081 95.4708 53.6737 88.183 56.4595 76.2099C48.8186 75.3056 40.8771 75.3066 33.242 76.2162ZM15.4135 80.1426C20.4589 86.7596 27.1891 91.6668 34.834 93.9849C33.3526 91.6692 31.9991 88.8057 30.8083 85.4333C29.8849 82.8176 29.0784 79.9622 28.3975 76.9191C23.9203 77.6859 19.5646 78.7655 15.4135 80.1426ZM5.92361 53.7646C6.35426 61.737 8.63605 69.1474 12.2828 75.4438C17.0701 73.7394 22.1322 72.4211 27.3504 71.5084C26.436 65.9723 25.8987 59.9725 25.7756 53.7642H5.92361V53.7646ZM30.625 53.7646C30.7517 59.9766 31.3026 65.6997 32.1597 70.7886C40.5052 69.7449 49.1972 69.7442 57.5412 70.7813C58.3976 65.6934 58.9477 59.9752 59.0747 53.7649L30.625 53.7646ZM30.625 48.2354H59.0744C58.9477 42.0234 58.3967 36.3003 57.54 31.2114C49.1905 32.2554 40.5092 32.2554 32.1597 31.2114C31.3029 36.3 30.752 42.0234 30.625 48.2354ZM5.92361 48.2354H25.7753C25.8987 42.0272 26.436 36.0273 27.3501 30.4912C22.1319 29.5786 17.0701 28.2602 12.2825 26.5559C8.63574 32.8525 6.35426 40.2627 5.92361 48.2354ZM33.242 25.7835C40.8816 26.6937 48.818 26.6934 56.458 25.7838C53.6725 13.8125 49.1078 6.52883 44.85 6.52883C40.5925 6.52883 36.0277 13.8146 33.242 25.7835ZM54.8654 8.01411C56.3471 10.3301 57.7006 13.1936 58.8916 16.5667C59.8151 19.1824 60.6212 22.0382 61.3025 25.0813C65.7903 24.312 70.1557 23.2297 74.3165 21.8481C69.2065 15.1329 62.4278 10.3008 54.8654 8.01411ZM15.4135 21.8571C19.5649 23.2339 23.9203 24.3134 28.3971 25.0806C29.0784 22.0375 29.8846 19.1824 30.808 16.5664C31.9988 13.1939 33.3526 10.3305 34.8337 8.0148C27.1891 10.3333 20.4589 15.24 15.4135 21.8571ZM64.3783 100.808C64.181 100.808 63.9816 100.78 63.7846 100.723C63.587 100.666 63.3991 100.582 63.224 100.473C62.8448 100.239 62.5384 99.9025 62.3217 99.5054C62.1569 99.2047 62.0411 98.8647 61.9877 98.5015C61.9414 98.1901 61.9417 97.8667 61.9935 97.5453C62.0272 97.3342 62.0817 97.1313 62.155 96.9395L66.7792 83.9439C68.9101 77.9578 72.7433 69.9996 81.3946 69.9996H87.5586C96.2102 69.9996 100.043 77.9575 102.174 83.9435L106.821 97.0031C107.325 98.4179 106.727 100.03 105.486 100.604C105.474 100.61 105.462 100.615 105.45 100.621C105.449 100.621 105.448 100.622 105.447 100.622C105.446 100.623 105.445 100.623 105.443 100.624C105.442 100.624 105.44 100.625 105.438 100.626C105.438 100.626 105.437 100.626 105.437 100.627C105.435 100.627 105.433 100.629 105.43 100.63C105.423 100.633 105.416 100.636 105.409 100.638V100.639C105.408 100.639 105.406 100.64 105.404 100.641C105.403 100.641 105.403 100.641 105.402 100.642C105.4 100.642 105.399 100.643 105.398 100.643C105.397 100.644 105.395 100.644 105.394 100.645C105.393 100.645 105.393 100.645 105.393 100.645C105.101 100.765 104.801 100.814 104.508 100.807H64.4453C64.4229 100.808 64.4005 100.808 64.3783 100.808ZM67.9794 95.2776H100.974L97.681 86.0228C95.0631 78.6677 92.0361 75.5292 87.5595 75.5292H81.3949C76.9183 75.5292 73.891 78.6677 71.2728 86.0232L67.9794 95.2776ZM84.4764 65.5901C78.627 65.5901 73.8682 60.1636 73.8682 53.4937C73.8682 46.8237 78.627 41.3975 84.4764 41.3975C90.3256 41.3975 95.0844 46.8237 95.0844 53.4937C95.0844 60.1636 90.3259 65.5901 84.4764 65.5901ZM84.4764 46.9267C81.3006 46.9267 78.7173 49.8724 78.7173 53.4937C78.7173 57.1149 81.3006 60.0609 84.4764 60.0609C87.652 60.0609 90.2353 57.1149 90.2353 53.4937C90.2353 49.8724 87.652 46.9267 84.4764 46.9267Z" stroke="#564781"/>
</svg>
