<svg width="100" height="60" viewBox="0 0 100 60" fill="none" xmlns="http://www.w3.org/2000/svg">
<path d="M11.9779 10.7352H25.7064C26.8033 10.7352 27.6924 9.84272 27.6924 8.73997V1.99525C27.6924 0.893882 26.8035 0 25.7064 0H11.9779C10.8797 0 9.98926 0.893882 9.98926 1.99525V8.73997C9.98945 9.84272 10.8797 10.7352 11.9779 10.7352Z" fill="#9C79FF"/>
<path d="M25.7067 49.2648H11.9782C10.8799 49.2648 9.9895 50.1587 9.9895 51.26V58.0047C9.9895 59.1075 10.8799 60 11.9782 60H25.7067C26.8036 60 27.6926 59.1075 27.6926 58.0047V51.26C27.6924 50.1587 26.8036 49.2648 25.7067 49.2648Z" fill="#9C79FF"/>
<path d="M66.0207 11.3448H79.0488C80.1457 11.3448 81.0346 10.4523 81.0346 9.34953V4.01466C81.0346 2.91192 80.1457 2.01666 79.0488 2.01666H66.0207C64.9238 2.01666 64.0352 2.91192 64.0352 4.01466V9.34953C64.0352 10.4525 64.9238 11.3448 66.0207 11.3448Z" fill="#9C79FF"/>
<path d="M79.0488 48.6553H66.0207C64.9238 48.6553 64.0352 49.5492 64.0352 50.6505V55.9883C64.0352 57.0881 64.924 57.9836 66.0207 57.9836H79.0488C80.1457 57.9836 81.0346 57.0881 81.0346 55.9883V50.6505C81.0346 49.5492 80.1457 48.6553 79.0488 48.6553Z" fill="#9C79FF"/>
<path d="M56.1248 24.2742C50.7254 24.2742 49.3369 26.8378 49.3369 29.9999C49.3369 33.1619 50.7254 35.7257 56.1248 35.7257C61.5244 35.7257 65.8992 33.1621 65.8992 29.9999C65.8992 26.838 61.5242 24.2742 56.1248 24.2742Z" fill="#9C79FF"/>
<path d="M100 30C100 28.9371 99.6291 27.9436 99.0049 27.1721C98.4502 26.48 97.6814 25.964 96.7928 25.6983V9.27576H82.8531V22.5293C81.2779 22.1939 79.8428 21.8982 78.7387 21.6907C74.7984 20.9561 66.4154 19.4595 62.9125 18.8373C62.7568 18.1663 62.5842 17.389 62.4652 16.7169C62.284 15.6881 61.9189 14.6422 61.3244 13.6544L61.3217 13.6501C60.8744 12.9125 60.3012 12.2133 59.5978 11.5922C58.5436 10.6586 57.2172 9.91548 55.6477 9.41951L55.6506 9.42088C54.0795 8.91923 52.2693 8.65918 50.1889 8.65918H37.5699C36.1645 8.65918 34.8965 8.8298 33.757 9.15378C32.7605 9.43795 31.8691 9.84449 31.0877 10.3275C29.7135 11.1788 28.7086 12.2545 27.9301 13.2822L27.933 13.278C27.3455 14.0495 26.8799 14.8014 26.4695 15.4437C26.1596 15.9326 25.8779 16.3703 25.6246 16.7171C25.4307 16.9801 25.2496 17.1975 25.084 17.3695L25.0881 17.3639C24.8432 17.6125 24.6578 17.7418 24.4639 17.8357C24.2572 17.9251 24.0775 17.9793 23.6756 17.9847C20.498 17.9847 17.7354 17.9847 15.8686 17.9847V12.09H0V47.911H2.50098H15.8688V42.0162C17.7342 42.0162 20.4969 42.0162 23.6713 42.0162C24.0902 42.0219 24.2715 42.0788 24.4768 42.1725C24.6508 42.2551 24.8207 42.3743 25.0428 42.5903C25.2311 42.7779 25.4434 43.0323 25.6713 43.3506L25.677 43.3577C26.0805 43.9148 26.5346 44.6736 27.0811 45.512L27.0867 45.5206C27.5043 46.1515 27.984 46.8365 28.5742 47.5115L28.5729 47.5086C29.4602 48.5317 30.6193 49.528 32.1311 50.2385C33.583 50.9206 35.3184 51.3044 37.3338 51.33L37.3764 51.3414H37.5703H50.1893C52.0393 51.3414 53.6725 51.1369 55.1174 50.7388C56.2002 50.4418 57.174 50.0367 58.033 49.5366C59.3281 48.7804 60.3527 47.8057 61.0887 46.7141C61.8246 45.6241 62.2621 44.4404 62.4658 43.2849C62.5848 42.6069 62.7574 41.8309 62.916 41.1618C66.4189 40.5391 74.799 39.0442 78.7365 38.3095C79.8434 38.102 81.2799 37.8065 82.8537 37.4698V50.7274H96.7934V34.3049C97.6777 34.0378 98.452 33.5232 99.0098 32.824L99.0027 32.8297C99.6277 32.0578 100 31.0645 100 30ZM86.4059 12.8427H93.2404V26.3435C92.0982 26.0821 90.707 25.7622 89.2195 25.4268C88.3066 25.2207 87.3584 25.0076 86.4059 24.7958V12.8427ZM12.3178 19.4395H12.3148V40.5603H12.3178V44.3433H3.55254V15.6565H12.3178V19.4395ZM93.2402 47.1587H86.4057V35.2041C88.9064 34.6498 91.3988 34.0799 93.2402 33.6565V47.1587ZM96.2408 30.5897C96.1092 30.7533 95.9266 30.8711 95.71 30.9196L95.7043 30.9211L95.6957 30.9225C95.6957 30.9225 95.5727 30.951 95.3434 31.0049L95.1437 31.0504C94.7148 31.1514 94.0568 31.3034 93.24 31.4911C91.6848 31.8505 89.5504 32.3381 87.3154 32.8383C87.0139 32.9064 86.7084 32.9746 86.4055 33.0429C85.702 33.1992 84.9973 33.3555 84.3023 33.5075C83.599 33.6624 82.9025 33.813 82.2344 33.9566C80.6252 34.3019 79.1687 34.6004 78.0861 34.8022C75.5854 35.2684 71.2346 36.0542 67.5123 36.7206C65.6525 37.0532 63.9457 37.3558 62.7088 37.579C62.0889 37.6898 61.5865 37.7765 61.2369 37.8406C60.89 37.903 60.6977 37.9357 60.6977 37.9357L60.0381 38.0536L59.8641 38.7031C59.8625 38.7074 59.7182 39.2503 59.5344 40.0149C59.3488 40.778 59.1281 41.7599 58.9682 42.6638C58.858 43.2949 58.6385 43.9158 58.2848 44.4971C58.0215 44.9319 57.6832 45.3482 57.25 45.732C56.6004 46.3046 55.7342 46.8136 54.5766 47.1801C53.4203 47.5496 51.9738 47.7741 50.1891 47.7741H37.5701C36.449 47.7741 35.518 47.6392 34.7311 47.4147C34.0447 47.217 33.4643 46.9514 32.952 46.6373C32.0602 46.083 31.3725 45.3666 30.7553 44.5581C30.2967 43.9513 29.882 43.2947 29.4645 42.6354C29.1488 42.1408 28.8332 41.6462 28.4838 41.1688C28.2205 40.8107 27.943 40.464 27.6273 40.1428C27.1574 39.6582 26.6041 39.2246 25.9416 38.9206C25.2779 38.6151 24.5164 38.446 23.6758 38.4474H14.4195V21.5532H23.6758C24.5447 21.5546 25.3273 21.3755 26.0039 21.0502C26.5955 20.7688 27.1008 20.3822 27.5354 19.9516C27.9146 19.575 28.2457 19.1628 28.5529 18.7364C29.0879 17.9932 29.5521 17.2046 30.0504 16.4498C30.424 15.8842 30.8104 15.3386 31.2449 14.8413C31.8988 14.0966 32.6445 13.4612 33.6354 12.995C34.6275 12.5305 35.8773 12.2277 37.5701 12.2263H50.1891C51.7742 12.2263 53.0934 12.4053 54.1803 12.7036C54.9939 12.9254 55.6775 13.2166 56.248 13.5508C57.1043 14.0509 57.7113 14.6449 58.1473 15.2874C58.5818 15.9326 58.8437 16.629 58.9682 17.3366C59.1283 18.2405 59.349 19.224 59.5344 19.9857C59.7184 20.7501 59.8627 21.2932 59.8641 21.2989L60.0381 21.9468L60.6977 22.0647C60.6977 22.0647 60.8902 22.0974 61.2369 22.1627C63.674 22.5948 73.7029 24.3798 78.0863 25.1984C79.3234 25.4286 81.0502 25.7867 82.934 26.196C83.3813 26.2925 83.841 26.3921 84.3025 26.4929C84.9975 26.6465 85.7021 26.8012 86.4057 26.9575C88.1846 27.3556 89.9397 27.7533 91.4385 28.0959C92.0953 28.245 92.7023 28.3858 93.2402 28.5094C93.7188 28.6204 94.1432 28.7168 94.4984 28.7994C94.8537 28.8818 95.1395 28.95 95.3434 28.9983L95.3801 29.0067C95.5854 29.0538 95.6955 29.0779 95.6955 29.0779L95.7041 29.0806H95.7098C95.9264 29.1289 96.109 29.2469 96.2406 29.4105C96.3723 29.5739 96.4473 29.7784 96.45 30.0002C96.4475 30.2232 96.3725 30.4264 96.2408 30.5897Z" fill="#9C79FF"/>
<path d="M99.0022 27.1677C99.0036 27.1689 99.0036 27.1705 99.0049 27.172C99.0063 27.1734 99.0063 27.1734 99.0079 27.175L99.0022 27.1677Z" fill="#9C79FF"/>
</svg>
