<svg width="100" height="86" viewBox="0 0 100 86" fill="none" xmlns="http://www.w3.org/2000/svg">
<path d="M85.1623 28.1792C84.1681 29.2395 82.8235 29.8345 81.4221 29.8345C80.0206 29.8345 78.676 29.2395 77.6818 28.1792L73.2912 23.4646C72.3031 22.3981 71.7484 20.9552 71.7484 19.4511C71.7484 17.947 72.3031 16.5041 73.2912 15.4377L83.2306 4.76935C83.2498 4.74885 83.2639 4.72364 83.2719 4.69592C83.2799 4.66821 83.2815 4.63882 83.2765 4.61031C83.2714 4.5818 83.26 4.55503 83.2432 4.53233C83.2264 4.50963 83.2046 4.49169 83.1799 4.48006C76.7658 1.5326 68.4474 3.03148 63.1662 8.66017C58.1115 14.0457 57.8244 22.1334 59.676 29.2043C59.9391 30.2088 59.9384 31.2717 59.6741 32.2757C59.4097 33.2797 58.8919 34.1858 58.1779 34.8938L24.3888 68.5947C23.5824 69.3698 22.9316 70.3133 22.4765 71.3675C22.0213 72.4217 21.7712 73.5645 21.7415 74.726C21.7118 75.8875 21.9032 77.0433 22.3038 78.1227C22.7045 79.2021 23.306 80.1825 24.0717 81.0039C24.8374 81.8253 25.7511 82.4704 26.757 82.8999C27.7629 83.3294 28.8398 83.5341 29.9219 83.5017C31.004 83.4692 32.0686 83.2002 33.0506 82.7111C34.0326 82.222 34.9113 81.523 35.633 80.657L67.3029 44.3274C67.9554 43.5737 68.787 43.0251 69.7083 42.7407C70.6295 42.4563 71.6055 42.4468 72.5314 42.7132C79.0666 44.5873 86.4943 44.2351 91.4904 38.9523C96.8596 33.2754 98.0178 23.2423 95.4162 17.5005C95.4044 17.4753 95.3872 17.4534 95.366 17.4368C95.3449 17.4201 95.3203 17.409 95.2944 17.4045C95.2684 17.4 95.2419 17.4022 95.2169 17.4109C95.1919 17.4195 95.1692 17.4344 95.1506 17.4543L85.1623 28.1792Z" stroke="#9C79FF" stroke-width="5" stroke-miterlimit="10" stroke-linecap="round"/>
<path d="M43.6252 49.1196C40.2111 45.5558 38.6467 43.8976 37.5705 42.7698C37.0319 42.1955 36.6784 41.4515 36.5614 40.6464C36.4444 39.8413 36.5701 39.0171 36.9201 38.2941C37.1046 37.9385 37.3348 37.6125 37.6037 37.3256L40.6662 34.1202C40.9831 33.7795 41.3559 33.5045 41.7658 33.309C42.4129 33.0015 43.1311 32.9095 43.8275 33.0448C44.5238 33.1801 45.1664 33.5364 45.6721 34.0678C46.7365 35.1768 48.6857 37.2124 52.1974 40.8852" stroke="#9C79FF" stroke-width="5" stroke-linecap="round" stroke-linejoin="round"/>
<path d="M61.803 50.6499C69.801 58.637 79.5022 68.1062 83.2874 71.4897C83.5704 71.7401 83.8015 72.0514 83.9658 72.4035C84.1301 72.7556 84.2239 73.1406 84.2412 73.534C84.2585 73.9273 84.1989 74.3201 84.0662 74.6873C83.9336 75.0544 83.7308 75.3876 83.4709 75.6656L76.9514 82.6611C76.6861 82.9394 76.3707 83.1568 76.0246 83.3001C75.6785 83.4434 75.3088 83.5096 74.9381 83.4947C74.5674 83.4798 74.2033 83.3841 73.8682 83.2134C73.533 83.0427 73.2337 82.8006 72.9885 82.5018C69.76 78.481 61.0569 68.4332 53.5999 60.0709" stroke="#9C79FF" stroke-width="5" stroke-linecap="round" stroke-linejoin="round"/>
<path d="M3.26191 30.1477L9.00605 24.1228C9.09379 24.0302 9.19794 23.9574 9.31234 23.9088C9.42674 23.8602 9.54906 23.8367 9.67206 23.8398C9.92002 23.8369 10.1591 23.9385 10.3381 24.1228C10.5461 24.3436 10.7983 24.5107 11.0754 24.6113C11.3526 24.712 11.6475 24.7435 11.9377 24.7035C12.6857 24.6154 13.4846 24.3681 14.0021 23.8398C15.174 22.6239 13.8185 20.2278 14.8498 18.6953C16.029 17.0178 17.3201 15.4344 18.7131 13.9576C19.885 12.725 24.5412 8.02076 32.3654 4.63935C34.8676 3.5538 37.5416 2.99716 40.2404 3.00001C44.6525 3.00001 48.0529 5.09636 49.2756 6.28498C50.0094 7.03442 50.6812 7.85087 51.2834 8.72513C50.6953 8.49249 50.0946 8.29857 49.4846 8.14444C48.2015 7.8523 46.8854 7.76331 45.5783 7.8803C42.9748 8.1088 39.8342 9.40225 38.1564 10.8152C35.4416 13.1212 34.2756 16.207 34.092 20.1879C33.9592 23.148 34.6232 24.8209 41.1428 31.8206C41.3656 32.0875 41.4832 32.4369 41.4708 32.7951C41.4584 33.1533 41.317 33.4923 41.0764 33.7408L37.5178 37.5142C37.2697 37.7753 36.9371 37.9231 36.5897 37.9266C36.2423 37.9301 35.9071 37.7891 35.6545 37.5331C31.3693 32.9337 28.4963 30.5963 26.8654 29.5334C25.2346 28.4706 23.9221 28.1708 23.2912 28.0974C22.0522 27.9657 20.8056 28.2491 19.7228 28.9087C19.5329 29.0208 19.3591 29.162 19.2072 29.328C18.9536 29.6093 18.7545 29.9418 18.6212 30.3062C18.488 30.6706 18.4233 31.0597 18.431 31.4511C18.4386 31.8424 18.5184 32.2283 18.6657 32.5864C18.813 32.9445 19.0249 33.2677 19.2893 33.5375L19.6232 33.8729C19.7099 33.9633 19.7789 34.0715 19.8259 34.1911C19.873 34.3106 19.8972 34.4391 19.8972 34.5689C19.8972 34.6986 19.873 34.8271 19.8259 34.9466C19.7789 35.0662 19.7099 35.1744 19.6232 35.2648L13.885 41.2793C13.798 41.3737 13.6942 41.4484 13.5798 41.4988C13.4654 41.5493 13.3426 41.5744 13.2189 41.5727C12.971 41.5754 12.732 41.4738 12.5529 41.2897L3.26191 31.5564C3.09375 31.3663 3 31.1142 3 30.852C3 30.5899 3.09375 30.3378 3.26191 30.1477Z" stroke="#9C79FF" stroke-width="5" stroke-linecap="round" stroke-linejoin="round"/>
</svg>
