<svg width="96" height="100" viewBox="0 0 96 100" fill="none" xmlns="http://www.w3.org/2000/svg">
<path d="M36.2957 43.0071C28.4643 43.0071 22.093 49.3875 22.093 57.2294C22.093 62.4586 26.2145 66.7046 26.6839 67.1712C27.4571 67.9398 28.4764 69.6416 28.8071 70.7097L29.9414 75.3604C30.2182 76.4971 31.2368 77.2975 32.4071 77.2975H40.1834C41.3533 77.2975 42.3719 76.4978 42.649 75.3611L43.7844 70.7086C44.1137 69.6437 45.1326 67.9411 45.9069 67.1712C46.3766 66.7046 50.4971 62.4582 50.4971 57.2294C50.4978 49.3871 44.1269 43.0071 36.2957 43.0071ZM42.3282 63.5719C40.9292 64.9631 39.4555 67.4372 38.8998 69.3262C38.8886 69.3641 38.8785 69.4024 38.869 69.4406L38.1901 72.2217H34.401L33.7228 69.4413C33.7137 69.402 33.7028 69.3631 33.6913 69.3242C33.1333 67.4332 31.6595 64.9601 30.268 63.577C29.406 62.709 27.1692 59.8768 27.1692 57.2298C27.1692 52.1865 31.2632 48.0836 36.2957 48.0836C41.3275 48.0836 45.4216 52.1865 45.4216 57.2298C45.4216 59.8765 43.1847 62.709 42.3282 63.5719Z" fill="#9C79FF" stroke="#9C79FF" stroke-width="0.216582"/>
<path d="M69.798 0H2.79295C1.39092 0 0.254883 1.13604 0.254883 2.53807V97.4619C0.254883 98.864 1.39092 100 2.79295 100H69.798C71.2001 100 72.3361 98.864 72.3361 97.4619V2.53807C72.3361 1.13604 71.2001 0 69.798 0ZM67.26 94.9239H5.33102V5.07614H67.26V94.9239Z" fill="#9C79FF" stroke="#9C79FF" stroke-width="0.216582"/>
<path d="M13.9604 29.6954H58.6305C60.0325 29.6954 61.1686 28.5594 61.1686 27.1574V13.7056C61.1686 12.3036 60.0325 11.1675 58.6305 11.1675H13.9604C12.5584 11.1675 11.4224 12.3036 11.4224 13.7056V27.1574C11.4224 28.5594 12.5587 29.6954 13.9604 29.6954ZM16.4985 16.2437H56.0924V24.6193H16.4985V16.2437Z" fill="#9C79FF" stroke="#9C79FF" stroke-width="0.216582"/>
<path d="M39.0874 79.6108H33.5036C32.1016 79.6108 30.9656 80.7469 30.9656 82.1489C30.9656 83.5509 32.1016 84.687 33.5036 84.687H39.0874C40.4894 84.687 41.6255 83.5509 41.6255 82.1489C41.6255 80.7469 40.4894 79.6108 39.0874 79.6108Z" fill="#9C79FF" stroke="#9C79FF" stroke-width="0.216582"/>
<path d="M36.3849 86.2098H36.2065C34.8045 86.2098 33.6685 87.3458 33.6685 88.7479C33.6685 90.1499 34.8045 91.286 36.2065 91.286H36.3849C37.7869 91.286 38.9229 90.1499 38.9229 88.7479C38.9229 87.3458 37.7866 86.2098 36.3849 86.2098Z" fill="#9C79FF" stroke="#9C79FF" stroke-width="0.216582"/>
<path d="M36.3849 40.0169C37.7869 40.0169 38.9229 38.8809 38.9229 37.4789C38.9229 36.0768 37.7869 34.9408 36.3849 34.9408H36.2065C34.8045 34.9408 33.6685 36.0768 33.6685 37.4789C33.6685 38.8809 34.8045 40.0169 36.2065 40.0169H36.3849Z" fill="#9C79FF" stroke="#9C79FF" stroke-width="0.216582"/>
<path d="M23.6944 41.8782C23.6944 40.4761 22.5584 39.3401 21.1564 39.3401H20.978C19.576 39.3401 18.4399 40.4761 18.4399 41.8782C18.4399 43.2802 19.5763 44.4162 20.978 44.4162H21.1564C22.558 44.4162 23.6944 43.2802 23.6944 41.8782Z" fill="#9C79FF" stroke="#9C79FF" stroke-width="0.216582"/>
<path d="M51.6131 39.3401H51.4348C50.0328 39.3401 48.8967 40.4761 48.8967 41.8782C48.8967 43.2802 50.0328 44.4162 51.4348 44.4162H51.6131C53.0152 44.4162 54.1512 43.2802 54.1512 41.8782C54.1512 40.4761 53.0148 39.3401 51.6131 39.3401Z" fill="#9C79FF" stroke="#9C79FF" stroke-width="0.216582"/>
<path d="M57.3663 51.692H57.188C55.7859 51.692 54.6499 52.8281 54.6499 54.2301C54.6499 55.6321 55.7859 56.7682 57.188 56.7682H57.3663C58.7683 56.7682 59.9044 55.6321 59.9044 54.2301C59.9044 52.8281 58.768 51.692 57.3663 51.692Z" fill="#9C79FF" stroke="#9C79FF" stroke-width="0.216582"/>
<path d="M16.4186 51.692H16.2402C14.8385 51.692 13.7021 52.8281 13.7021 54.2301C13.7021 55.6321 14.8385 56.7682 16.2402 56.7682H16.4186C17.8206 56.7682 18.9566 55.6321 18.9566 54.2301C18.9566 52.8281 17.8203 51.692 16.4186 51.692Z" fill="#9C79FF" stroke="#9C79FF" stroke-width="0.216582"/>
<path d="M78.4277 76.2917C78.4277 76.6856 78.5194 77.0745 78.6958 77.4271L84.8162 89.6684C85.2463 90.5279 86.1249 91.0714 87.0863 91.0714C88.0477 91.0714 88.9266 90.5283 89.3563 89.6684L95.4771 77.4271C95.6535 77.0745 95.7452 76.6856 95.7452 76.2917V16.1591C95.7452 14.757 94.6091 13.621 93.2071 13.621H80.9658C79.5638 13.621 78.4277 14.757 78.4277 16.1591V76.2917ZM83.5039 73.7536V26.8579H90.669V73.7536H83.5039ZM90.669 18.6971V21.7817H83.5039V18.6971H90.669ZM87.0863 82.8579L85.0724 78.8301H89.1001L87.0863 82.8579Z" fill="#9C79FF" stroke="#9C79FF" stroke-width="0.216582"/>
</svg>
