<svg width="89" height="89" viewBox="0 0 89 89" fill="none" xmlns="http://www.w3.org/2000/svg">
<path d="M85.375 1H4.125L1 4.125V85.375L4.125 88.5H85.375L88.5 85.375V4.125L85.375 1ZM82.25 82.25H26V69.75H40.375C42.25 73.5 46.625 76 51 76C57.875 76 63.5 70.375 63.5 63.5C63.5 56.625 57.875 51 51 51C44.125 51 38.5 56.625 38.5 63.5H19.75V82.25H7.25V7.25H19.75V21.625C16 23.5 13.5 27.875 13.5 32.25C13.5 39.125 19.125 44.75 26 44.75C32.875 44.75 38.5 39.125 38.5 32.25H51C51 39.125 56.625 44.75 63.5 44.75C70.375 44.75 76 39.125 76 32.25C76 25.375 70.375 19.75 63.5 19.75C59.125 19.75 54.75 22.25 52.875 26H36.625C34.75 22.25 30.375 19.75 26 19.75V7.25H82.25V82.25ZM44.75 63.5C44.75 59.75 47.25 57.25 51 57.25C54.75 57.25 57.25 59.75 57.25 63.5C57.25 67.25 54.75 69.75 51 69.75C47.25 69.75 44.75 67.25 44.75 63.5ZM26 26C29.75 26 32.25 28.5 32.25 32.25C32.25 36 29.75 38.5 26 38.5C22.25 38.5 19.75 36 19.75 32.25C19.75 28.5 22.25 26 26 26ZM63.5 26C67.25 26 69.75 28.5 69.75 32.25C69.75 36 67.25 38.5 63.5 38.5C59.75 38.5 57.25 36 57.25 32.25C57.25 28.5 59.75 26 63.5 26Z" fill="#9C79FF" stroke="#9C79FF" stroke-width="0.5"/>
</svg>
